<svg xmlns="http://www.w3.org/2000/svg"><symbol id="arrow-left" viewBox="0 0 14.000894 9.0012639">
    <path d="M14 4.5a.5.5 0 0 0-.5-.5H1.709L4.855.856a.5.5 0 1 0-.708-.708l-4 4a.5.5 0 0 0 0 .708l4 4a.5.5 0 0 0 .708-.708L1.708 5H13.5a.5.5 0 0 0 .5-.5z" fill-rule="evenodd"/>
</symbol><symbol id="chevron-right" viewBox="0 0 11 20">
    <path d="M.836 1.353L9.46 9.569l-8.624 8.8" stroke-width="2"/>
</symbol><symbol id="icon-fb" viewBox="0 0 17 30">
    <path fill-rule="evenodd" clip-rule="evenodd" d="M10.961 29.728h-6.94V17.205H.553v-5.64H4.02V8.18c0-4.6 1.957-7.337 7.521-7.337h4.631v5.641H13.28c-2.166 0-2.31.788-2.31 2.26l-.009 2.822h5.245l-.614 5.639h-4.63v12.523z"/>
</symbol><symbol id="icon-ig" viewBox="0 0 31 31">
    <path d="M22.1.229H8.55C3.95.229.205 3.973.205 8.575v13.55c0 4.602 3.744 8.346 8.345 8.346H22.1c4.603 0 8.347-3.744 8.347-8.346V8.575c0-4.602-3.744-8.346-8.346-8.346zm5.664 21.896a5.669 5.669 0 0 1-5.663 5.662H8.551a5.669 5.669 0 0 1-5.663-5.662V8.575A5.669 5.669 0 0 1 8.55 2.912H22.1a5.669 5.669 0 0 1 5.663 5.663v13.55z"/>
    <path d="M15.326 7.558c-4.297 0-7.793 3.495-7.793 7.792s3.496 7.792 7.793 7.792c4.296 0 7.792-3.495 7.792-7.792s-3.495-7.792-7.792-7.792zm0 12.9a5.115 5.115 0 0 1-5.11-5.108 5.115 5.115 0 0 1 5.11-5.11 5.115 5.115 0 0 1 5.109 5.11 5.115 5.115 0 0 1-5.11 5.109zM23.446 5.283c-.517 0-1.025.209-1.39.576a1.977 1.977 0 0 0-.578 1.391c0 .518.212 1.025.578 1.392.365.365.873.576 1.39.576.519 0 1.025-.211 1.392-.576.367-.367.576-.875.576-1.392 0-.518-.21-1.026-.576-1.391a1.976 1.976 0 0 0-1.392-.576z"/>
</symbol><symbol id="icon-load" viewBox="0 0 28 28">
    <path d="M13.801 19.702a.298.298 0 0 0 .47 0l4.167-5.3a.299.299 0 0 0-.234-.482h-2.758V1.263a.3.3 0 0 0-.297-.3h-2.233a.3.3 0 0 0-.298.3v12.653h-2.75a.299.299 0 0 0-.235.482l4.168 5.304zm13.856-1.31h-2.233a.3.3 0 0 0-.298.3v5.76H2.946v-5.76a.3.3 0 0 0-.298-.3H.415a.3.3 0 0 0-.298.3v7.406c0 .662.532 1.197 1.191 1.197h25.456c.658 0 1.19-.535 1.19-1.197v-7.406a.3.3 0 0 0-.297-.3z"/>
</symbol><symbol id="icon-tel" viewBox="0 0 29 30">
    <path d="M15.77 9.16c1.122 0 2.2.462 2.993 1.284a4.457 4.457 0 0 1 1.24 3.096c0 .388.15.759.414 1.033.264.274.623.427.998.427.374 0 .733-.153.998-.427.264-.274.413-.645.413-1.033a7.428 7.428 0 0 0-2.067-5.16 6.94 6.94 0 0 0-4.99-2.139c-.374 0-.733.154-.997.428a1.486 1.486 0 0 0-.414 1.032c0 .387.15.759.414 1.032.264.274.623.428.998.428z"/>
    <path d="M15.77 3.321c2.62 0 5.132 1.077 6.985 2.993 1.852 1.917 2.893 4.516 2.893 7.226 0 .387.149.759.413 1.032.265.274.624.428.998.428.375 0 .734-.154.998-.428.265-.273.414-.645.414-1.032 0-3.485-1.338-6.826-3.72-9.29C22.367 1.786 19.137.4 15.768.4c-.374 0-.733.154-.998.428a1.486 1.486 0 0 0-.413 1.032c0 .387.149.759.413 1.032.265.274.624.428.998.428zm12.348 17.387a1.464 1.464 0 0 0-.39-.61 1.397 1.397 0 0 0-.626-.34l-8.468-2a1.366 1.366 0 0 0-.696.02c-.227.066-.434.19-.602.36-.198.19-.212.205-1.13 2.015-3.043-1.45-5.482-3.984-6.872-7.139 1.792-.934 1.806-.934 1.99-1.153.164-.174.284-.389.348-.623.064-.235.07-.482.019-.72L9.757 1.861a1.477 1.477 0 0 0-.327-.648A1.409 1.409 0 0 0 8.84.81C8.51.688 8.17.6 7.824.547A5.386 5.386 0 0 0 6.737.401a6.384 6.384 0 0 0-4.59 1.967A6.834 6.834 0 0 0 .245 7.117c.008 5.96 2.3 11.674 6.374 15.888 4.074 4.215 9.598 6.585 15.36 6.593.852 0 1.697-.173 2.484-.51a6.483 6.483 0 0 0 2.106-1.457 6.735 6.735 0 0 0 1.408-2.178 6.915 6.915 0 0 0 .494-2.57 6.512 6.512 0 0 0-.353-2.175zm-6.14 5.97c-5.014-.003-9.822-2.066-13.367-5.733-3.546-3.668-5.54-8.641-5.543-13.828a3.877 3.877 0 0 1 1.078-2.68 3.623 3.623 0 0 1 2.591-1.116h.466l1.51 6.774-.762.409c-1.214.656-2.174 1.182-1.666 2.32a17.393 17.393 0 0 0 3.92 6.446 16.664 16.664 0 0 0 6.213 4.08c1.186.496 1.652-.423 2.287-1.693l.409-.803 6.534 1.547v.482a3.877 3.877 0 0 1-1.079 2.68 3.623 3.623 0 0 1-2.59 1.116z"/>
</symbol><symbol id="icon-tg" viewBox="0 0 34 31">
    <path d="M31.486.232c-.414.03-.82.127-1.203.288h-.005c-.368.145-2.115.88-4.771 1.995l-9.52 4.009C9.157 9.399 2.442 12.23 2.442 12.23l.08-.03s-.463.151-.947.483a2.62 2.62 0 0 0-.756.731c-.237.348-.428.88-.357 1.432.116.93.72 1.489 1.153 1.797.439.312.856.458.856.458h.01l6.298 2.121c.282.907 1.918 6.287 2.312 7.526.232.74.458 1.203.74 1.556.137.181.296.332.489.453.1.058.206.104.317.137l-.065-.016c.02.005.035.021.05.026.051.014.086.02.152.03.996.302 1.797-.317 1.797-.317l.045-.037 3.718-3.385 6.231 4.78.142.061c1.299.57 2.614.253 3.309-.306.7-.564.972-1.285.972-1.285l.046-.116 4.815-24.668c.136-.608.171-1.178.02-1.732A2.33 2.33 0 0 0 32.862.58a2.414 2.414 0 0 0-1.376-.348zm-.13 2.644c-.005.08.01.072-.026.228v.014L26.56 27.53c-.02.035-.055.111-.15.187-.101.08-.181.13-.6-.036l-7.622-5.843-4.603 4.196.967-6.177L27.004 8.25c.513-.477.341-.577.341-.577.037-.586-.775-.172-.775-.172L10.87 17.228l-.005-.026-7.526-2.533v-.006l-.02-.004a.338.338 0 0 0 .04-.015l.04-.02.04-.015s6.72-2.832 13.551-5.707c3.42-1.44 6.866-2.891 9.516-4.01 2.65-1.114 4.608-1.93 4.72-1.974.105-.041.055-.041.13-.041v-.001z"/>
</symbol><symbol id="icon-vk" viewBox="0 0 36 31">
    <path d="M28.944.229c3.966 0 6.528 2.465 6.528 7.329 0 2.804-1.627 6.422-2.986 8.533-4.546 7.063-10.16 14.247-15.72 14.247-6.04 0-7.612-11.135-8.3-13.745-.687-2.61-.868-3.602-1.907-5.27-.516.359-1.239.863-2.168 1.516a.815.815 0 0 1-1.13-.19l-2.14-2.96a.815.815 0 0 1 .044-1.011C5.774 3.344 9.603.676 12.655.676c3.898 0 5.092 4.59 5.418 6.883.489 3.451 1.124 7.724 2.027 9.572.908-1.29 3.554-4.707 3.207-6.504-.153-.792-2.147.299-3.076.127-.693-.13-1.314-.655-1.314-1.672 0-2.135 3.019-8.851 10.027-8.851V.229zm.011 3.26c-3.578 0-5.3 2.5-5.955 3.6 2.038.074 3.212 1.333 3.477 2.938.634 3.799-3.123 8.02-3.812 9.072-.646.983-4.99 5.425-6.928-5.477-.392-2.27-.753-4.545-1.084-6.824-.277-1.876-1.423-2.874-2.005-2.874-1.373 0-3.13 1.06-6.284 4.1 3.105-.187 4.148 3.71 4.753 5.922 1.33 4.864 2.56 13.132 5.9 13.132 2.816 0 7.237-4.313 12.015-11.476.34-.507 3.204-4.929 3.204-8.209 0-3.904-2.394-3.904-3.28-3.904z"/>
</symbol><symbol id="icon-yt" viewBox="0 0 39 28">
    <path d="M38.555 14.232c0-.093 0-.198-.004-.32-.004-.34-.013-.722-.02-1.13a63.242 63.242 0 0 0-.186-3.44c-.126-1.515-.31-2.78-.563-3.729a5.86 5.86 0 0 0-4.128-4.137c-1.189-.32-3.516-.517-6.792-.638A197.564 197.564 0 0 0 21.97.72c-.584-.008-1.126-.013-1.613-.017h-1.235c-.487.004-1.029.009-1.613.017-1.667.02-3.335.059-4.893.118-3.276.126-5.607.323-6.792.638a5.853 5.853 0 0 0-4.128 4.137c-.257.95-.437 2.214-.563 3.73a63.243 63.243 0 0 0-.185 3.44c-.013.407-.017.79-.02 1.13 0 .121-.005.226-.005.319v.235c0 .092 0 .197.004.32.004.34.013.722.021 1.13.034 1.17.092 2.339.185 3.439.126 1.516.31 2.78.563 3.73a5.853 5.853 0 0 0 4.128 4.137c1.185.32 3.516.517 6.792.638 1.558.06 3.226.097 4.893.118.584.008 1.126.013 1.613.017h1.235c.487-.004 1.029-.009 1.613-.017a197.57 197.57 0 0 0 4.893-.118c3.276-.126 5.607-.323 6.792-.638a5.845 5.845 0 0 0 4.128-4.137c.257-.95.437-2.214.563-3.73.093-1.1.151-2.268.185-3.44.013-.407.017-.79.021-1.13 0-.121.004-.227.004-.319v-.235zm-3.024.218c0 .088 0 .185-.004.299-.004.327-.013.688-.021 1.079a56.791 56.791 0 0 1-.176 3.272c-.114 1.352-.273 2.461-.47 3.204a2.826 2.826 0 0 1-1.992 1.996c-.882.235-3.104.424-6.124.537a190.833 190.833 0 0 1-6.405.13h-1.201l-1.588-.012a191.31 191.31 0 0 1-4.817-.118c-3.02-.117-5.246-.302-6.124-.537a2.833 2.833 0 0 1-1.991-1.995c-.197-.744-.357-1.853-.47-3.205a60.828 60.828 0 0 1-.177-3.272c-.012-.39-.017-.756-.02-1.08 0-.113-.005-.214-.005-.298v-.201c0-.089 0-.185.004-.299.004-.327.013-.688.021-1.079a56.78 56.78 0 0 1 .177-3.272c.113-1.352.273-2.461.47-3.205A2.826 2.826 0 0 1 6.608 4.4c.883-.235 3.105-.424 6.125-.537a190.822 190.822 0 0 1 6.405-.13h1.201l1.588.012c1.642.021 3.284.059 4.817.118 3.02.117 5.247.302 6.124.537a2.833 2.833 0 0 1 1.991 1.995c.198.744.357 1.853.47 3.205.089 1.037.143 2.155.177 3.272.013.39.017.756.021 1.08 0 .113.004.214.004.298v.201zm-19.53 5.528l9.744-5.67L16 8.72v11.257z"/>
</symbol></svg>