<svg xmlns="http://www.w3.org/2000/svg"><symbol id="404" viewBox="0 0 288 216">
    <path d="M104.78 165.403h78.437v-10.948H104.78v10.948zm81.1-56.515l-7.695-7.99-9.176 9.47-9.471-9.47-7.696 7.99 9.472 9.172-9.472 9.173 7.696 7.989 9.471-9.469 9.176 9.469 7.696-7.99-9.176-9.172 9.176-9.172zm-57.125-7.99l-9.472 9.47-9.175-9.47-7.696 7.99 9.176 9.172-9.176 9.173 7.696 7.989 9.175-9.469 9.472 9.469 7.696-7.99-9.472-9.172 9.472-9.172-7.696-7.99zm109.22-76.93c5.558 0 10.063 4.503 10.063 10.06 0 5.556-4.505 10.06-10.064 10.06-5.558 0-10.063-4.504-10.063-10.06 0-5.557 4.505-10.06 10.063-10.06zm-32.855 0c5.558 0 10.063 4.503 10.063 10.06 0 5.556-4.505 10.06-10.063 10.06-5.556 0-10.064-4.504-10.064-10.06 0-5.557 4.508-10.06 10.064-10.06zm-31.079 0c5.559 0 10.064 4.503 10.064 10.06 0 5.556-4.505 10.06-10.064 10.06-5.556 0-10.064-4.504-10.064-10.06 0-5.557 4.508-10.06 10.064-10.06zm73.405 175.758h-206.6c-13.615 0-24.863-13.02-24.863-29.293V68.943h256.03v101.786c0 15.978-10.951 28.997-24.567 28.997zM40.846 15.978H247.15c13.616 0 24.863 13.02 24.863 29.293v7.397H16.28v-7.397c0-16.274 10.952-29.293 24.567-29.293zM247.446 0h-206.6C18.351 0 0 20.416 0 45.271V170.73C0 195.584 18.351 216 40.846 216H247.15c22.495 0 40.846-20.416 40.846-45.271V45.27C288.292 20.121 269.941 0 247.446 0z" fill-rule="evenodd"/>
</symbol><symbol id="anaesthesiology" viewBox="0 0 20 22">
    <path d="M11.647 9.557a.942.942 0 0 0-.946.938c0 .518.423.938.946.938.522 0 .945-.42.945-.938a.942.942 0 0 0-.945-.938m3.73 10.309L7.963 8.807a13.11 13.11 0 0 0 1.972-1.969l1.357.865a.659.659 0 0 0 .355.103h.544c3.584 0 6.499 2.892 6.499 6.447 0 2.407-1.338 4.505-3.313 5.613m-3.186.833c-1.692 0-3.28-.64-4.494-1.802l-2.2-8.65a9.36 9.36 0 0 0 1.393-.691l7.268 10.84a6.512 6.512 0 0 1-1.967.303m-9.7-11.104c-.06-.844.018-2.522 1.35-3.709.755-.67 1.605-1.012 2.527-1.012 1.145 0 2.175.517 2.76.882C7.795 7.448 5.74 9.388 2.49 9.595m9.7-3.089h-.352l-1.148-.732a.648.648 0 0 0-.21-.657c-.076-.063-1.861-1.543-4.113-1.543-.275 0-.544.026-.807.07C4.53 1.483 2.869.195.842.003a.651.651 0 0 0-.124 1.295c1.855.175 2.95 1.495 3.579 2.737a5.124 5.124 0 0 0-.676.381C3.177 3.59 2.29 2.412.753 2.18a.66.66 0 0 0-.745.546.651.651 0 0 0 .549.74c1.136.171 1.775 1.255 2.036 1.824-1.952 2.12-1.343 4.985-1.315 5.113.066.298.333.51.64.51.022 0 .041-.002.062-.003v.906H.718a.653.653 0 0 0-.656.65c0 .359.294.65.656.65h1.917c.362 0 .655-.291.655-.65v-1.65c.33-.044.65-.098.957-.172l2.017 7.936H.737a.653.653 0 0 0-.655.65c0 .358.293.65.655.65h6.092A7.768 7.768 0 0 0 12.19 22c4.307 0 7.81-3.475 7.81-7.746 0-4.271-3.502-7.748-7.809-7.748"/>
</symbol><symbol id="angiography" viewBox="0 0 20 23">
    <path d="M16.594 17.146H1.7a.573.573 0 0 1-.567-.577c0-.319.254-.577.567-.577h14.893c.313 0 .567.258.567.577a.574.574 0 0 1-.567.577zm-3.084 2.561a.58.58 0 0 0-.129.366v1.772H4.914v-1.772a.583.583 0 0 0-.127-.366l-1.132-1.406H14.64l-1.131 1.406zm-9.308-5.729c.369-.375 1.298-.793 2.374-1.089.19.902.827 1.633 1.662 1.948H4.503c-.284 0-.394-.169-.434-.269a.542.542 0 0 1 .133-.59zm4.945-3.176c.826 0 1.498.684 1.498 1.524s-.672 1.524-1.498 1.524c-.825 0-1.496-.683-1.496-1.524 0-.84.671-1.524 1.496-1.524zm2.572 2.087c1.077.297 2.007.714 2.374 1.09a.543.543 0 0 1 .135.59c-.041.1-.152.267-.435.267h-3.736a2.672 2.672 0 0 0 1.662-1.947zM9.071 0C6.15 0 3.406 1.157 1.343 3.259a1.734 1.734 0 0 0-.5 1.225c0 .463.178.898.5 1.225a1.68 1.68 0 0 0 2.405 0A7.414 7.414 0 0 1 9.07 3.465c4.15 0 7.525 3.437 7.525 7.662 0 .319.254.577.568.577a.572.572 0 0 0 .566-.577c0-4.862-3.884-8.817-8.66-8.817a8.528 8.528 0 0 0-6.124 2.583.56.56 0 0 1-.802 0 .577.577 0 0 1-.166-.41c0-.153.059-.298.166-.407a9.638 9.638 0 0 1 6.927-2.921c5.4 0 9.794 4.473 9.794 9.972 0 1.518-.34 2.987-.979 4.328a1.678 1.678 0 0 0-1.292-.618H15.33a1.722 1.722 0 0 0-.436-1.676c-.609-.619-1.875-1.142-3.193-1.465-.28-1.173-1.317-2.048-2.554-2.048-1.237 0-2.276.875-2.555 2.05-1.318.322-2.584.844-3.192 1.463a1.72 1.72 0 0 0-.436 1.676H1.7c-.938 0-1.701.777-1.701 1.732 0 .954.763 1.732 1.7 1.732h.49l1.59 1.978v2.143c0 .32.254.578.567.578h9.601a.573.573 0 0 0 .568-.578V20.28l1.591-1.978h.487a1.69 1.69 0 0 0 1.38-.727l.007-.001.022-.036.003-.004A11.193 11.193 0 0 0 20 11.127C20 4.99 15.096 0 9.07 0zM4.889 9.782V7.688a.572.572 0 0 0-.567-.577.571.571 0 0 0-.567.577v2.094c0 .318.254.577.567.577a.572.572 0 0 0 .567-.577zm2.413-1.664V6.024a.572.572 0 0 0-.567-.577.572.572 0 0 0-.568.577v2.094c0 .318.254.577.568.577a.572.572 0 0 0 .567-.577zm7.239 1.664V7.688a.572.572 0 0 0-.567-.577.571.571 0 0 0-.567.577v2.094c0 .318.253.577.567.577a.572.572 0 0 0 .567-.577zm-2.98-1.087a.572.572 0 0 0 .567-.577V6.024a.572.572 0 0 0-.567-.577.572.572 0 0 0-.567.577v2.094c0 .318.253.577.567.577zm-1.846-1.03V5.574a.572.572 0 0 0-.568-.577.572.572 0 0 0-.566.577v2.093c0 .319.254.578.566.578a.573.573 0 0 0 .568-.578z"/>
</symbol><symbol id="apparat" viewBox="0 0 40 24">
    <path d="M38.29 12.393l-2.232 1.727-.068-.067-.398-.399 1.725-2.23a.311.311 0 0 1 .15-.003c.176.027.368.135.529.295.3.3.322.6.294.677zm-2.535 4.465a.55.55 0 0 1-.76 0l-2.12-2.12a.532.532 0 0 1-.157-.38.533.533 0 0 1 .537-.537c.137 0 .275.052.38.157l1.06 1.06.725.725.335.336c.21.209.21.55 0 .759zm-10.989-2.17a.804.804 0 0 0-.45.857.606.606 0 1 1 .74-.93.801.801 0 0 0-.29.073zm-9.61.003a.796.796 0 0 0-.3-.076.605.605 0 1 1 .75.926.803.803 0 0 0-.45-.85zM11.1 21.8v-2.928c.293-.019.583-.054.866-.124 1.187-.294 2.055-.989 2.639-1.635.223.076.46.118.708.118 1.225 0 2.22-.996 2.22-2.22 0-1.225-.995-2.22-2.22-2.22a2.223 2.223 0 0 0-1.947 3.285c-.416.448-1.013.919-1.8 1.11a3.234 3.234 0 0 1-.466.075v-3.771a3.714 3.714 0 0 1 3.71-3.71h10.294a3.714 3.714 0 0 1 3.71 3.71v3.77a3.29 3.29 0 0 1-.46-.075c-.789-.191-1.388-.664-1.804-1.114a2.223 2.223 0 0 0-1.95-3.281c-1.224 0-2.22.996-2.22 2.22 0 1.225.996 2.221 2.22 2.221.25 0 .49-.043.714-.12.584.647 1.452 1.343 2.64 1.637a4.9 4.9 0 0 0 .86.123v2.93H11.1zm5.776-13.633h6.162V4.382h-6.162v3.786zm-3.042-6.555h12.245v6.649a5.308 5.308 0 0 0-.975-.094h-.453V3.575a.806.806 0 0 0-.807-.806H16.07a.806.806 0 0 0-.806.806v4.593h-.453a5.32 5.32 0 0 0-.976.094V1.613zM4.176 16.858a.538.538 0 0 1 0-.76l2.12-2.12a.535.535 0 0 1 .76 0 .534.534 0 0 1 0 .76l-2.12 2.12a.55.55 0 0 1-.76 0zm-2.258-5.142c.3-.3.6-.323.677-.294l1.727 2.232-.466.466-2.232-1.727c-.029-.076-.006-.377.294-.677zm37.218-1.14a2.61 2.61 0 0 0-1.42-.75c-.6-.092-1.165.077-1.553.464a.889.889 0 0 0-.067.077l-1.686 2.18a2.152 2.152 0 0 0-2.675.29c-.406.407-.63.947-.63 1.52 0 .575.224 1.115.63 1.52l.369.37c-.583.372-1.143.644-1.677.815V13.49a5.324 5.324 0 0 0-2.735-4.647V.807A.806.806 0 0 0 26.886 0H13.027a.807.807 0 0 0-.806.807v8.037a5.324 5.324 0 0 0-2.734 4.647v3.569c-.53-.17-1.085-.44-1.664-.809l.373-.373c.406-.406.63-.946.63-1.52 0-.574-.224-1.114-.63-1.52a2.153 2.153 0 0 0-2.687-.285l-1.692-2.186a.84.84 0 0 0-.067-.077c-.753-.753-2.06-.628-2.973.286-.913.913-1.039 2.219-.285 2.972.024.024.05.047.076.068l2.185 1.691A2.153 2.153 0 0 0 3.035 18c.407.406.947.63 1.52.63.575 0 1.115-.225 1.52-.63l.583-.583c.975.66 1.92 1.096 2.829 1.312v3.88c0 .445.361.806.806.806H29.62a.806.806 0 0 0 .807-.806V18.73c.913-.216 1.861-.654 2.841-1.319l.587.587c.406.406.946.63 1.52.63.574 0 1.114-.223 1.52-.63a2.154 2.154 0 0 0 .277-2.7l2.173-1.682a.806.806 0 0 0 .077-.068c.753-.753.628-2.059-.286-2.972z"/>
</symbol><symbol id="apparatus" viewBox="0 0 27 24">
    <path d="M22.94 2.096c-.336-.142-.812-.3-1.363-.483-1.136-.378-2.692-.894-3.65-1.506a.676.676 0 0 0-.727 1.138c1.098.703 2.68 1.228 3.95 1.65.525.174.978.324 1.264.445 2.094.885 3.223 2.686 3.097 4.939-.023.408-.148.814-.28 1.244-.207.675-.442 1.439-.314 2.35.566 4.042-.834 7.708-.848 7.744a.675.675 0 1 0 1.258.491c.064-.161 1.545-4.02.928-8.423-.086-.613.078-1.147.268-1.765.15-.488.305-.993.337-1.565.157-2.815-1.308-5.155-3.92-6.26M1.956 11.873c.128-.91-.107-1.674-.315-2.349-.132-.43-.257-.836-.28-1.244-.126-2.254 1.003-4.054 3.097-4.939.286-.121.739-.272 1.263-.445 1.27-.423 2.852-.948 3.95-1.65A.676.676 0 1 0 8.943.107c-.956.611-2.512 1.128-3.648 1.506a21.05 21.05 0 0 0-1.364.483C1.32 3.2-.146 5.54.011 8.355.043 8.927.2 9.432.35 9.92c.19.618.354 1.152.268 1.765-.617 4.404.864 8.262.927 8.423a.675.675 0 1 0 1.258-.491c-.013-.037-1.415-3.687-.846-7.745m17.427.285a.675.675 0 1 0 .336 1.309c.289-.075.546-.165.79-.262-.042.373-.088.82-.137 1.325-.337.036-.66.092-.99.153-.417.076-.852.15-1.347.184a1.968 1.968 0 0 0-1.834-1.268c-.953 0-1.75.68-1.93 1.58a1.71 1.71 0 0 1-1.67 0 1.973 1.973 0 0 0-1.93-1.58c-.84 0-1.554.532-1.837 1.275a11.821 11.821 0 0 1-1.344-.191 13.06 13.06 0 0 0-.99-.153c-.048-.503-.095-.954-.135-1.325.243.097.5.187.788.262a.676.676 0 0 0 .337-1.308c-1.95-.502-2.393-1.63-2.544-3.012.559.054.927.168 1.306.288.456.144.93.29 1.67.341a1.967 1.967 0 0 0 1.85 1.315c.748 0 1.392-.424 1.726-1.04a5.47 5.47 0 0 0 3.882.008A1.965 1.965 0 0 0 17.1 11.09c.856 0 1.578-.552 1.85-1.316.74-.05 1.214-.196 1.67-.34.38-.12.747-.235 1.307-.29-.152 1.383-.595 2.512-2.545 3.013m-3.802 3.411a.62.62 0 1 1 1.24.001.62.62 0 0 1-1.24-.001m-5.529 0a.62.62 0 1 1 1.24.002.62.62 0 0 1-1.24-.002m9.932 4.804c-.44.054-.827.151-1.178.242a8.447 8.447 0 0 1-.777.174 1.971 1.971 0 0 0-1.829-1.247c-.953 0-1.75.68-1.93 1.579a1.71 1.71 0 0 1-1.669 0 1.972 1.972 0 0 0-1.93-1.58 1.97 1.97 0 0 0-1.828 1.248 8.278 8.278 0 0 1-.778-.174 9.057 9.057 0 0 0-1.177-.242 91.548 91.548 0 0 0-.266-4.467c.201.03.405.066.623.106.46.084.97.176 1.577.214a1.967 1.967 0 0 0 1.849 1.313c.73 0 1.361-.404 1.702-.996.342.13.7.205 1.061.205.363 0 .725-.065 1.069-.195.342.587.97.985 1.697.985.857 0 1.58-.553 1.85-1.32a12.717 12.717 0 0 0 1.575-.207c.218-.04.422-.076.623-.105a92.78 92.78 0 0 0-.264 4.467M16.2 22.13a.62.62 0 1 1 .001-1.24.62.62 0 0 1-.001 1.24m-5.53 0a.62.62 0 0 1 0-1.238.62.62 0 0 1 0 1.238m-.9-13.63a.62.62 0 1 1-.002 1.24.62.62 0 0 1 .002-1.24m7.33 0a.62.62 0 1 1-.002 1.24.62.62 0 0 1 .002-1.24m5.67-1.726a.673.673 0 0 0-.724.623c-.01.126-.016.256-.024.385a7.022 7.022 0 0 0-1.81.363c-.388.123-.74.233-1.276.277a1.969 1.969 0 0 0-1.836-1.273 1.97 1.97 0 0 0-1.915 1.524c-1.06.505-2.44.504-3.5 0A1.97 1.97 0 0 0 9.77 7.15c-.84 0-1.553.53-1.836 1.272-.536-.045-.889-.153-1.277-.276a7.016 7.016 0 0 0-1.808-.363c-.008-.129-.014-.259-.024-.385a.675.675 0 1 0-1.347.102c.016.212.028.428.04.647.07 1.315.165 2.969 1.38 4.142.105.845.677 5.661.677 10.206a.676.676 0 0 0 1.351 0c0-.25-.002-.502-.005-.754.274.047.536.112.803.18.345.09.7.18 1.092.228a1.966 1.966 0 0 0 1.855 1.332c.729 0 1.36-.403 1.7-.993.343.13.702.203 1.063.203a3.05 3.05 0 0 0 1.069-.195c.342.586.97.985 1.697.985.861 0 1.588-.56 1.854-1.333a8.252 8.252 0 0 0 1.091-.227c.269-.069.53-.135.804-.181-.002.253-.005.504-.005.755a.676.676 0 0 0 1.351 0c0-4.542.572-9.359.677-10.206 1.215-1.174 1.31-2.827 1.38-4.142.012-.219.024-.435.04-.648a.675.675 0 0 0-.622-.724"/>
</symbol><symbol id="arrow-more_down" viewBox="0 0 9 4">
    <path d="M8 .093L4.48 4 1 0" fill-rule="evenodd"/>
</symbol><symbol id="arrow_white" viewBox="0 0 7 11">
    <path d="M1.107 1l4.47 4.225L1 9.4" stroke-width="2" fill-rule="evenodd"/>
</symbol><symbol id="cardiology" viewBox="0 0 23 19">
    <path d="M4.203 17.268c-.498.143-.93.216-1.286.216-.757 0-1.565-.213-1.565-2.76 0-4.275 3.43-10.167 5.921-10.167.268 0 .889.006 1.234 1.842-1.403.407-3.534 1.406-3.534 3.722a.677.677 0 0 0 1.353 0c0-1.342 1.326-2.027 2.355-2.358.115 1.401.115 3.152.115 5.105v.185h.001c0 2.398-1.836 3.42-4.594 4.215M20.747 7.3c-1.52-2.603-3.361-4.097-5.049-4.097-1.97 0-2.421 2.129-2.572 2.98-.533-.046-.963-.392-.963-.803V.677a.676.676 0 1 0-1.353 0V5.38c0 .377-.364.697-.836.783a.658.658 0 0 0-.136-.024c-.158-.879-.625-2.936-2.564-2.936-1.688 0-3.528 1.494-5.05 4.097C.852 9.648 0 12.493 0 14.723c0 1.018 0 4.114 2.918 4.114.49 0 1.033-.088 1.66-.27 1.809-.521 5.572-1.606 5.572-5.514v-.186c0-2.037-.001-3.855-.132-5.339a2.552 2.552 0 0 0 1.468-.655c.38.354.893.594 1.468.655a26.93 26.93 0 0 0-.12 2.34l1.354-.193c.014-.847.042-1.463.098-2.028.68.18 1.564.513 2.14 1.072a.674.674 0 0 0 .956-.014.676.676 0 0 0-.015-.957c-.86-.834-2.08-1.251-2.885-1.447.35-1.74.952-1.745 1.215-1.745 2.49 0 5.92 5.891 5.92 10.167.001 1.016-.134 1.754-.4 2.196-.141.23-.37.49-.914.55l-1.49 1.208.17.035c.386.08.742.125 1.07.125 1.05 0 1.831-.41 2.32-1.217.409-.674.6-1.594.6-2.897-.002-2.231-.853-5.075-2.226-7.423m-1.242 6.468c0 2.21-2.865 3.484-3.702 3.81-.838-.325-3.701-1.6-3.701-3.81 0-.94.765-1.705 1.705-1.705.57 0 1.1.284 1.417.758.126.187.341.299.578.299a.692.692 0 0 0 .58-.299 1.703 1.703 0 0 1 1.417-.758c.94 0 1.706.765 1.706 1.705m1.39.001a3.101 3.101 0 0 0-3.097-3.098c-.731 0-1.442.262-1.996.728a3.118 3.118 0 0 0-1.996-.728 3.101 3.101 0 0 0-3.097 3.098c0 3.579 4.678 5.147 4.875 5.211a.699.699 0 0 0 .433 0c.199-.064 4.879-1.614 4.879-5.21" fill-rule="evenodd"/>
</symbol><symbol id="care-for-children" viewBox="0 0 14 24">
    <path d="M7.218 8.207c-.002 0-.238.106-.436 0a.66.66 0 0 0-.896.272.669.669 0 0 0 .27.902c.289.156.572.208.822.208.461 0 .81-.178.866-.208a.669.669 0 0 0 .27-.902.66.66 0 0 0-.896-.272zm5.458 2.083l-7.329 3.592-4.023-2.525V7.043c0-3.149 2.547-5.71 5.676-5.71s5.675 2.561 5.675 5.71v3.247zm0 6.668c0 .487-.068.958-.183 1.41l-3.227-2.026-.003-.001-2.59-1.626 6.003-2.943v5.186zM7 22.668a5.647 5.647 0 0 1-4.273-1.965l6.166-3.024 3.117 1.956c-.956 1.802-2.842 3.032-5.01 3.032zm-5.675-5.71v-4.03l6.242 3.919-5.597 2.745a5.692 5.692 0 0 1-.645-2.634zM7 0C3.14 0 0 3.16 0 7.043v9.915c0 1.392.41 2.689 1.106 3.784l.005.013c.008.016.02.028.03.044C2.39 22.723 4.548 24 7 24c2.915 0 5.417-1.803 6.468-4.358a7.044 7.044 0 0 0 .53-2.684l.001-9.915C14 3.159 10.86 0 7 0zm0 10.468c-1.878 0-3.405-1.536-3.405-3.425 0-.128.008-.253.021-.377.21.022.413.033.61.033a5.083 5.083 0 0 0 2.83-.841c.69.537 1.757 1.046 3.348 1.141 0 .015.003.029.003.043 0 1.89-1.529 3.426-3.407 3.426zm0-6.852c.159 0 .313.014.466.036a4.377 4.377 0 0 1-.816.87c-.008.008-.02.01-.027.018l-.004.008c-.602.477-1.445.858-2.58.807A3.404 3.404 0 0 1 7 3.615zm1.755.495a3.44 3.44 0 0 1 1.35 1.532c-.792-.09-1.463-.313-2.006-.67a5.75 5.75 0 0 0 .656-.862zm.005-1.483c-.01-.005-.019-.011-.029-.015-.028-.013-.058-.02-.088-.028A4.67 4.67 0 0 0 7 2.283c-2.154 0-3.973 1.458-4.542 3.443-.004.016-.01.03-.015.047-.001.007 0 .012-.002.018a4.78 4.78 0 0 0-.171 1.251c0 2.624 2.122 4.759 4.73 4.759 2.609 0 4.731-2.135 4.731-4.759A4.765 4.765 0 0 0 8.76 2.628z"/>
</symbol><symbol id="check" viewBox="0 0 15 13">
    <path d="M1 6.137L5.838 11 14 1" stroke-width="2" fill-rule="evenodd"/>
</symbol><symbol id="clinical-thinking-new" viewBox="0 0 25 24">
    <path d="M12.351 20.815v.148-.148c.732-.001 2.446-2.367 3.845-5.297-.922-.648-3.773-2.187-7.695.057 1.882 3.918 3.429 5.24 3.85 5.24zm4.42-6.326c.56-1.088.942-2.358 1.11-3.684l.008-.037a.595.595 0 0 1 .616-.476.883.883 0 0 0 .063-1.763H6.137a.883.883 0 0 0-.883.883c0 .243.1.471.282.64.18.169.42.26.663.24a.586.586 0 0 1 .618.48l.007.037c.17 1.34.56 2.624 1.129 3.72 4.244-2.394 7.489-.909 8.818-.04zm.877-10.927l.001-.021a2.355 2.355 0 0 0-2.355-2.364H9.412A2.355 2.355 0 0 0 7.06 3.53l-.002.024-.286 3.8h11.163l-.286-3.792zm7.047 19.79a.584.584 0 0 1-.251.374.603.603 0 0 1-.815-.165c-2.008-3.02-5.294-4.356-7.738-4.946-1.357 2.24-2.547 3.375-3.537 3.377-.995 0-2.191-1.134-3.559-3.372-2.436.592-5.714 1.928-7.717 4.941a.585.585 0 0 1-.815.165.584.584 0 0 1-.164-.816c1.704-2.564 4.496-4.41 8.084-5.347-.496-.9-.862-1.672-1-1.974a.412.412 0 0 1-.032-.106c-.691-1.184-1.183-2.584-1.425-4.056a2.07 2.07 0 0 1-1.648-2.015c0-.921.628-1.738 1.508-1.983l.299-3.948A3.54 3.54 0 0 1 9.412 0h5.882a3.54 3.54 0 0 1 3.527 3.47l.002.025.296 3.933a2.073 2.073 0 0 1 1.508 1.983 2.07 2.07 0 0 1-1.648 2.015c-.253 1.535-.774 2.985-1.51 4.199a31.732 31.732 0 0 1-.97 1.93c3.599.936 6.4 2.784 8.109 5.354.087.131.118.288.087.442zM10.579 11.097a.626.626 0 1 0-1.251.002.626.626 0 0 0 1.251-.002zm3.548 0a.626.626 0 1 0 1.252-.001.626.626 0 0 0-1.252 0zm-1.066.617h-1.415a1.814 1.814 0 0 1-1.692 1.184 1.804 1.804 0 0 1-1.801-1.801c0-.993.808-1.802 1.801-1.802.754 0 1.435.482 1.692 1.185h1.415a1.814 1.814 0 0 1 1.691-1.185c.994 0 1.802.809 1.802 1.802s-.808 1.801-1.802 1.801a1.814 1.814 0 0 1-1.691-1.184zm1.185 4.84a.589.589 0 0 0-.588-.589h-2.61a.589.589 0 0 0 0 1.177h2.61a.589.589 0 0 0 .588-.589zM13.01 3.82h.948v1.314h-.948v.948h-1.314v-.948h-.947V3.82h.947v-.948h1.314v.948z" fill-rule="evenodd"/>
</symbol><symbol id="clinical-thinking" viewBox="0 0 19 20">
    <path d="M17.067 11.904c.084-.556.13-1.126.13-1.702l-.001-.682c.05.012.098.03.143.06.216.138.35.434.35.772 0 .31-.06 1.131-.622 1.552zM9.5 18.682c-3.401 0-6.385-3.962-6.385-8.48v-1.48c.919-.664 2.002-1.121 3.295-1.39A3.412 3.412 0 0 0 9.5 9.317a3.414 3.414 0 0 0 3.089-1.98c1.297.271 2.38.732 3.293 1.401l.003 1.465c0 4.517-2.984 8.479-6.385 8.479zm2.1-12.793C11.6 7.052 10.658 8 9.5 8c-1.157 0-2.1-.947-2.1-2.11 0-1.164.943-2.11 2.1-2.11 1.158 0 2.1.946 2.1 2.11zm-8.485-.6c0-1.803 3.922-3.97 6.385-3.97 2.742 0 6.376 2.263 6.376 3.971l.003 1.873c-.872-.504-1.858-.869-2.976-1.107.003-.056.009-.11.009-.168 0-1.89-1.53-3.428-3.412-3.428-1.881 0-3.412 1.538-3.412 3.428 0 .055.007.109.009.163-1.117.237-2.105.598-2.981 1.101V5.29zm-1.803 5.063c0-.338.134-.633.35-.773a.49.49 0 0 1 .142-.06v.684c0 .577.046 1.145.13 1.7-.563-.42-.622-1.24-.622-1.55zM18.047 8.47a1.742 1.742 0 0 0-.853-.273l-.007-2.907C17.187 2.42 12.466 0 9.5 0 6.601 0 1.804 2.472 1.804 5.29v2.906a1.743 1.743 0 0 0-.85.274C.357 8.854 0 9.558 0 10.352c0 1.671.894 2.85 2.27 3.082C3.37 17.176 6.28 20 9.5 20c3.22 0 6.13-2.824 7.23-6.566 1.376-.232 2.27-1.41 2.27-3.082.001-.794-.355-1.498-.953-1.882zm-9.01-3.047A.661.661 0 0 0 9.5 6.548c.171 0 .341-.07.464-.193a.66.66 0 0 0 0-.932.674.674 0 0 0-.928 0zm1.961 9.282c-.812.582-2.183.583-2.995 0a.653.653 0 0 0-.915.154.661.661 0 0 0 .153.92c.633.454 1.447.68 2.26.68.812 0 1.625-.226 2.258-.68a.66.66 0 0 0 .154-.92.653.653 0 0 0-.915-.154z"/>
</symbol><symbol id="close" viewBox="0 0 29 29">
    <g stroke-width="2" fill-rule="evenodd">
        <path d="M8.975 8.975l10.8 10.8M8.975 19.775l10.8-10.8M1.45 14.375C1.45 7.236 7.237 1.45 14.375 1.45c7.139 0 12.926 5.786 12.926 12.925 0 7.139-5.787 12.925-12.926 12.925-7.138 0-12.925-5.786-12.925-12.925z"/>
    </g>
</symbol><symbol id="dentistry" viewBox="0 0 16 19">
    <path d="M5.054 1.43c-2.003 0-3.634 1.644-3.634 3.664 0 1.819.463 2.624.954 3.476.318.555.649 1.129.825 1.935.1.46.2.933.298 1.405.374 1.793 1.04 4.987 1.745 5.568.129-.45.234-1.367.308-2.014.27-2.363.577-5.04 2.45-5.04 1.918 0 2.213 2.697 2.473 5.077.072.668.168 1.536.289 1.974.704-.588 1.37-3.774 1.743-5.565.098-.472.197-.944.298-1.405.176-.805.506-1.38.825-1.934.491-.852.955-1.658.955-3.476 0-2.02-1.63-3.664-3.635-3.664-.914 0-1.789.348-2.464.978a.705.705 0 0 1-.964 0 3.608 3.608 0 0 0-2.466-.978M10.539 19c-1.112 0-1.265-1.402-1.477-3.343-.124-1.138-.416-3.804-1.061-3.804-.61 0-.912 2.646-1.041 3.775C6.735 17.585 6.574 19 5.46 19c-1.935 0-2.592-3.15-3.353-6.797-.098-.467-.195-.935-.296-1.391-.128-.589-.378-1.023-.666-1.523C.609 8.355 0 7.297 0 5.094 0 2.285 2.267 0 5.054 0 6.118 0 7.144.337 8 .962A4.992 4.992 0 0 1 10.947 0C13.733 0 16 2.286 16 5.094c0 2.204-.608 3.262-1.145 4.195-.29.501-.539.935-.667 1.523-.1.457-.198.924-.296 1.392C13.132 15.85 12.475 19 10.54 19"/>
</symbol><symbol id="diagnostics" viewBox="0 0 20 19">
    <path d="M17.059 12.401c-.907 0-1.645-.725-1.645-1.618 0-.894.738-1.62 1.645-1.62s1.644.726 1.644 1.62c0 .891-.738 1.618-1.644 1.618M1.833 9.506c1.163.441 2.693.69 4.406.692h.032c1.71 0 3.236-.246 4.399-.689-1.02 1.355-3.24 2.416-4.418 2.851-1.178-.437-3.4-1.5-4.419-2.854m15.226-1.62c-1.622 0-2.942 1.299-2.942 2.897 0 1.364.965 2.508 2.257 2.813-.28 2.32-2.288 4.127-4.718 4.127-2.474 0-4.51-1.872-4.732-4.251 1.417-.56 5.583-2.456 5.583-5.368v-5.12a.623.623 0 0 0-.012-.117C12.393 1.736 11.564.81 10.471.546A.642.642 0 0 0 9.831 0a.644.644 0 0 0-.648.639v.933c0 .353.29.639.649.639.249 0 .462-.14.57-.342.476.215.807.684.807 1.231v4.686c-.9.695-2.787 1.135-4.939 1.135h-.027c-2.158-.004-4.048-.445-4.946-1.136V3.1c0-.546.333-1.016.807-1.23a.647.647 0 0 0 .57.34.644.644 0 0 0 .649-.638V.64A.644.644 0 0 0 2.674 0a.644.644 0 0 0-.639.546C.945.81.114 1.736.012 2.866A.641.641 0 0 0 0 2.985v5.12c0 2.946 4.259 4.85 5.627 5.386.236 3.077 2.846 5.51 6.029 5.51 3.14 0 5.728-2.369 6.022-5.387 1.325-.281 2.322-1.444 2.322-2.83 0-1.598-1.32-2.898-2.941-2.898m0 2.122a.78.78 0 0 0-.787.774.78.78 0 0 0 .787.775.78.78 0 0 0 .786-.775.78.78 0 0 0-.786-.774"/>
</symbol><symbol id="emergency" viewBox="0 0 19 18">
    <path d="M9.498 14.127c-1.903 0-3.452-1.58-3.452-3.524 0-1.941 1.549-3.522 3.452-3.522 1.904 0 3.452 1.58 3.452 3.522 0 1.944-1.548 3.524-3.452 3.524zm0-8.41c-2.64 0-4.787 2.192-4.787 4.886 0 2.696 2.147 4.887 4.787 4.887s4.788-2.191 4.788-4.887c0-2.693-2.148-4.885-4.788-4.885zm.667 4.203V8.522a.675.675 0 0 0-.667-.681.675.675 0 0 0-.667.681V9.92H7.459a.675.675 0 0 0-.668.68c0 .377.299.682.668.682H8.83v1.403c0 .376.299.681.667.681a.675.675 0 0 0 .667-.681v-1.403h1.374a.675.675 0 0 0 .668-.681.675.675 0 0 0-.668-.681h-1.374zm7.499 5.147c0 .866-.69 1.571-1.538 1.571H2.874c-.849 0-1.539-.705-1.539-1.571V6.14c0-.867.69-1.572 1.539-1.572h13.252c.848 0 1.538.705 1.538 1.572v8.926zM6.26 3.206c0-1.016.81-1.843 1.805-1.843h2.869c.995 0 1.806.826 1.806 1.843H6.26zm9.866 0h-2.051C14.075 1.438 12.666 0 10.934 0H8.065c-1.732 0-3.14 1.438-3.14 3.206h-2.05C1.288 3.206 0 4.52 0 6.14v8.926C0 16.684 1.29 18 2.874 18h13.252C17.711 18 19 16.684 19 15.066V6.14c0-1.618-1.29-2.934-2.874-2.934z"/>
</symbol><symbol id="endoscopy" viewBox="0 0 23 17">
    <path d="M22.783 2.898a.746.746 0 0 1-.524.213c-.19 0-.38-.071-.524-.213-2.731-2.673-5.406-.834-5.518-.755a.753.753 0 0 1-1.034-.159.714.714 0 0 1 .157-1.01c1.298-.938 4.525-1.958 7.443.899.29.283.29.742 0 1.025zm-8.744 4.233l-3.69 4.353a5.007 5.007 0 0 0-1.495-3.148 5.157 5.157 0 0 0-1.88-1.177 5.241 5.241 0 0 0-1.336-.288l4.447-3.61c1.121-.91 2.734-.861 3.752.114l.043.042.043.042c.996.996 1.046 2.575.116 3.672zM2.565 14.49a3.575 3.575 0 0 1-.015-5.112l.553-.45a3.789 3.789 0 0 1 3.361-.407c.506.18.957.464 1.342.84a3.573 3.573 0 0 1 .448 4.595l-.465.549c-1.447 1.398-3.784 1.393-5.224-.015zM14.928 2.39l-.054-.052C13.312.842 10.846.759 9.138 2.145L2.193 7.783a5.006 5.006 0 0 0-.676 7.733A5.229 5.229 0 0 0 5.186 17a5.229 5.229 0 0 0 3.668-1.485c.015-.014.028-.03.042-.045l.005-.004.006-.008c.183-.185.346-.38.495-.584l5.778-6.817c1.417-1.671 1.332-4.084-.215-5.63l-.037-.036zM5.953 12.677a1.104 1.104 0 0 1-1.535 0 1.044 1.044 0 0 1 0-1.503 1.104 1.104 0 0 1 1.535 0 1.044 1.044 0 0 1 0 1.503zm1.049-2.529a2.553 2.553 0 0 0-.931-.582 2.618 2.618 0 0 0-2.701.582 2.478 2.478 0 0 0 0 3.555c.5.49 1.158.735 1.816.735a2.59 2.59 0 0 0 1.816-.735 2.47 2.47 0 0 0 .752-1.778 2.47 2.47 0 0 0-.752-1.777z"/>
</symbol><symbol id="error" viewBox="0 0 14 13">
    <g stroke-width="2" fill-rule="evenodd" stroke-linecap="square">
        <path d="M2.385 1.385l9.358 9.358M11.615 1.385l-9.358 9.358"/>
    </g>
</symbol><symbol id="eye-diseases" viewBox="0 0 20 11">
    <path d="M10 2.662a.651.651 0 0 0-.66.64.65.65 0 0 0 .66.64c.885 0 1.607.699 1.607 1.56 0 .859-.722 1.558-1.608 1.558-.885 0-1.607-.7-1.607-1.559a.649.649 0 0 0-.659-.64.651.651 0 0 0-.66.64C7.073 7.066 8.387 8.34 10 8.34c1.613 0 2.927-1.274 2.927-2.839s-1.314-2.84-2.927-2.84m4.892 5.605a5.34 5.34 0 0 0 .778-2.766 5.334 5.334 0 0 0-.772-2.756c1.668.958 2.947 2.143 3.553 2.757-.606.616-1.888 1.806-3.56 2.765M10 9.722C7.6 9.722 5.65 7.828 5.65 5.5c0-2.327 1.951-4.22 4.35-4.22 2.397 0 4.349 1.893 4.349 4.22 0 2.328-1.952 4.222-4.35 4.222M1.551 5.5c.605-.613 1.883-1.797 3.55-2.753A5.332 5.332 0 0 0 4.33 5.5c0 1.003.284 1.944.771 2.756C3.435 7.298 2.156 6.114 1.551 5.5m18.295-.41C19.668 4.883 15.406 0 9.999 0h-.001C4.595.001.332 4.883.153 5.09a.625.625 0 0 0 0 .82C.332 6.118 4.595 11 9.998 11h.001c5.406 0 9.67-4.883 9.847-5.09a.621.621 0 0 0 0-.82"/>
</symbol><symbol id="file" viewBox="0 0 12 12">
    <path d="M.968 11.031A3.284 3.284 0 0 1 0 8.693c0-.884.344-1.714.969-2.338l3.295-3.296a2.09 2.09 0 0 1 1.488-.616A2.106 2.106 0 0 1 7.24 6.035L3.944 9.33l-.425-.425L6.815 5.61a1.506 1.506 0 0 0 0-2.126 1.494 1.494 0 0 0-1.063-.44c-.401 0-.779.156-1.063.44L1.394 6.78A2.688 2.688 0 0 0 .6 8.693c0 .723.282 1.402.792 1.913.511.511 1.19.792 1.914.792.722 0 1.402-.281 1.913-.792l5.386-5.386a2.69 2.69 0 0 0 .793-1.913c-.001-.723-.282-1.402-.793-1.914A2.688 2.688 0 0 0 8.693.601c-.723 0-1.402.282-1.913.793l-.288.288-.425-.425.288-.288A3.285 3.285 0 0 1 8.693 0c.883 0 1.714.344 2.338.968A3.29 3.29 0 0 1 12 3.307c0 .883-.344 1.713-.969 2.338L5.645 11.03a3.286 3.286 0 0 1-2.338.968 3.285 3.285 0 0 1-2.339-.968z" fill-rule="evenodd"/>
</symbol><symbol id="imitators" viewBox="0 0 25 26">
    <path d="M10.559 4.85a.679.679 0 0 1-.034-.656L12.388.38a.679.679 0 0 1 1.218.595L12.22 3.813h1.413a.677.677 0 0 1 .61.974l-1.847 3.814a.679.679 0 0 1-1.22-.592l1.375-2.84h-1.417a.679.679 0 0 1-.575-.318zm-6.59 18.856H20.79V11.501H3.97v12.205zM5.239 6.71h.693V2.98H5.24V6.71zm13.595 0h.693V2.98h-.693V6.71zm5.255-2.472h-3.207V2.302a.678.678 0 0 0-.677-.678h-2.048a.678.678 0 0 0-.678.678v5.085c0 .375.303.678.678.678h2.048a.678.678 0 0 0 .677-.678V5.593h2.529v11.333h-1.264v-6.103a.678.678 0 0 0-.678-.678H3.291a.678.678 0 0 0-.678.678v6.103H1.355V5.593h2.53v1.794c0 .375.303.678.677.678H6.61a.678.678 0 0 0 .678-.678V2.302a.678.678 0 0 0-.678-.678H4.562a.678.678 0 0 0-.678.678v1.935H.678A.678.678 0 0 0 0 4.915v12.69c0 .374.303.677.678.677h1.935v6.103c0 .374.303.678.678.678H21.47a.678.678 0 0 0 .678-.678v-6.103h1.942a.678.678 0 0 0 .677-.678V4.915a.678.678 0 0 0-.677-.678zm-11.84 17.192a.652.652 0 1 1-1.303 0 .652.652 0 0 1 1.303 0zm-2.33 0a.652.652 0 1 1-1.304 0 .652.652 0 0 1 1.304 0zm-2.33 0a.652.652 0 1 1-1.304 0 .652.652 0 0 1 1.303 0zm9.755-.383a.465.465 0 1 1 .002-.93.465.465 0 0 1-.002.93zm0-2.284c-1.003 0-1.82.816-1.82 1.82 0 1.003.817 1.82 1.82 1.82 1.004 0 1.82-.817 1.82-1.82 0-1.004-.816-1.82-1.82-1.82zm0-4.553c.517 0 .938.42.938.937a.939.939 0 0 1-1.875 0c0-.517.42-.937.937-.937zm0 3.231a2.296 2.296 0 0 0 2.294-2.294 2.296 2.296 0 0 0-2.294-2.293 2.296 2.296 0 0 0-2.293 2.293 2.296 2.296 0 0 0 2.293 2.294zm-11.028.55h5.901V14.21h-5.9v3.782zm-.677 1.357h7.256a.678.678 0 0 0 .678-.678V13.53a.678.678 0 0 0-.678-.678H5.64a.678.678 0 0 0-.678.678v5.138c0 .374.303.678.678.678z" fill-rule="evenodd"/>
</symbol><symbol id="injections" viewBox="0 0 20 20">
    <path d="M4.72 15.281a3.048 3.048 0 0 1 0-4.306l.398-.4 1.502 1.502a.703.703 0 0 0 .994-.994l-1.502-1.5.9-.901 1.501 1.501a.703.703 0 0 0 .994-.994l-1.5-1.502.9-.9 1.5 1.502a.702.702 0 1 0 .995-.994L9.9 5.793l.9-.9 1.501 1.502a.703.703 0 0 0 .994-.994L11.794 3.9l.9-.9L17 7.304 9.026 15.28a3.05 3.05 0 0 1-4.307.001M.206 19.794c.275.275.72.275.994 0l3.065-3.066a4.456 4.456 0 0 0 5.755-.453L17.995 8.3l.59.588a.702.702 0 1 0 .993-.993l-3.239-3.24.96-.96 1.501 1.5a.703.703 0 0 0 .994-.993L15.799.206a.703.703 0 0 0-.994.994l1.5 1.5-.96.962-3.24-3.24a.702.702 0 1 0-.993.994l.59.59L3.724 9.98a4.454 4.454 0 0 0-.453 5.755L.205 18.8a.703.703 0 0 0 0 .994"/>
</symbol><symbol id="internal-illnesses" viewBox="0 0 24 15">
    <path d="M16.927 7.796c.22.255.382 1.346.258 1.804a.636.636 0 0 0 .611.803.633.633 0 0 0 .61-.467c.08-.294.112-.852.04-1.432.168.175.333.383.497.633a.63.63 0 0 0 .877.18.638.638 0 0 0 .18-.88 5.275 5.275 0 0 0-.878-1.045c.276-.128.542-.27.79-.442a.638.638 0 0 0 .158-.885.63.63 0 0 0-.88-.16 3.86 3.86 0 0 1-.555.315c.169-.532.201-1.093.083-1.648a.632.632 0 1 0-1.238.265c.152.713-.118 1.285-.402 1.664-1.268-.422-2.306-.374-3.086.159-.929.633-1.4 1.89-1.4 3.736v3.968a.634.634 0 1 0 1.267 0v-3.968c0-1.379.291-2.307.845-2.684.48-.326 1.228-.296 2.223.084m-6.92-1.136c-.78-.533-1.819-.581-3.087-.159-.284-.38-.553-.951-.402-1.664a.632.632 0 1 0-1.237-.265 3.21 3.21 0 0 0 .082 1.648 3.86 3.86 0 0 1-.554-.314.63.63 0 0 0-.88.159.638.638 0 0 0 .157.885c.248.173.515.314.79.442-.308.277-.601.622-.877 1.045a.638.638 0 0 0 .528.986c.205 0 .407-.1.529-.286.163-.25.329-.458.495-.633-.07.58-.039 1.138.041 1.432A.634.634 0 1 0 6.813 9.6c-.124-.458.039-1.552.256-1.804.996-.38 1.746-.41 2.226-.084.552.377.845 1.304.845 2.684v3.967c0 .352.283.636.633.636.35 0 .633-.284.633-.636v-3.967c0-1.846-.471-3.103-1.4-3.736M18.385 0c-1.31 0-2.48.613-3.133 1.637-.61.96-.673 2.13-.174 3.214a.632.632 0 0 0 .84.31.638.638 0 0 0 .309-.845c-.319-.69-.286-1.399.092-1.994.418-.657 1.19-1.05 2.066-1.05 2.52 0 4.35 2.512 4.35 5.972 0 3.462-1.83 5.974-4.349 5.974-.876 0-1.648-.393-2.066-1.05-.378-.595-.412-1.302-.093-1.994a.637.637 0 0 0-.308-.844.632.632 0 0 0-.84.31c-.5 1.083-.437 2.254.173 3.213.651 1.025 1.823 1.637 3.134 1.637C21.64 14.49 24 11.442 24 7.244 24 3.047 21.638 0 18.385 0M8.08 9.33a.637.637 0 0 0-.307.845c.318.69.285 1.399-.093 1.993-.418.658-1.19 1.05-2.066 1.05-2.52 0-4.348-2.512-4.348-5.973 0-3.46 1.829-5.972 4.349-5.972.874 0 1.647.392 2.065 1.05.378.594.41 1.303.093 1.994a.638.638 0 0 0 .307.845.63.63 0 0 0 .84-.31c.5-1.083.437-2.254-.173-3.214C8.095.613 6.924 0 5.615 0 2.36 0 0 3.048 0 7.246s2.36 7.244 5.614 7.244c1.31 0 2.481-.61 3.133-1.636.61-.96.673-2.13.174-3.213a.631.631 0 0 0-.841-.31"/>
</symbol><symbol id="intubation" viewBox="0 0 24 17">
    <path d="M22.165 14.979c-.167.277-.455.595-1.214.595-.373 0-.824-.076-1.343-.227-2.88-.84-4.8-1.915-4.8-4.442v-.196c0-2.72 0-5.07.277-6.686C15.44 1.95 16.113 1.95 16.4 1.95c2.6 0 6.185 6.21 6.185 10.715 0 1.07-.14 1.849-.42 2.314zM9.191 10.905c0 2.527-1.919 3.604-4.8 4.442-.52.15-.97.228-1.343.228-.792 0-1.635-.225-1.635-2.909 0-4.506 3.584-10.715 6.185-10.715.287 0 .96 0 1.315 2.073.276 1.617.276 3.966.276 6.686v.195h.002zm12.484-6.064C20.086 2.098 18.164.524 16.401.524c-2.059 0-2.53 2.243-2.688 3.141-.556-.05-1.006-.414-1.006-.847V.713A.71.71 0 0 0 12 0a.71.71 0 0 0-.706.713v2.105c0 .433-.45.798-1.007.847C10.129 2.766 9.658.524 7.6.524c-1.763 0-3.687 1.574-5.276 4.317C.89 7.316 0 10.314 0 12.665 0 13.738 0 17 3.048 17c.513 0 1.08-.092 1.735-.283 1.89-.55 5.821-1.694 5.821-5.812v-.196c0-2.147-.002-4.063-.138-5.627A2.661 2.661 0 0 0 12 4.392c.397.373.933.625 1.534.69-.137 1.564-.139 3.48-.138 5.627v.196c0 4.117 3.932 5.261 5.82 5.812.656.19 1.223.283 1.735.283 1.096 0 1.912-.431 2.423-1.281.427-.711.626-1.68.626-3.054-.001-2.352-.89-5.35-2.325-7.824z"/>
</symbol><symbol id="mail" viewBox="0 0 16 12">
    <path d="M14.957 10.435H1.043a.348.348 0 0 1-.347-.348V1.752l7.091 5.48a.346.346 0 0 0 .426 0l7.091-5.48v8.335a.348.348 0 0 1-.347.348M1.043.695h13.914c.14 0 .258.084.314.204L8 6.517.73.899a.347.347 0 0 1 .313-.203M14.957 0H1.043C.468 0 0 .468 0 1.043v9.044c0 .575.468 1.043 1.043 1.043h13.914c.575 0 1.043-.468 1.043-1.043V1.043C16 .468 15.532 0 14.957 0" fill-rule="evenodd"/>
</symbol><symbol id="management" viewBox="0 0 25 26">
    <path d="M23.306 4.896l-.56-2.657a.855.855 0 0 0-.415-.61.874.874 0 0 0-.536-.17H21.6L11.195 3.654l.974 4.557L22.55 6.017a.95.95 0 0 0 .756-1.121zm-14.744.439l.512 2.485 1.438-.317L10 5.017l-1.438.318zm7.945 7.992v.804c0 .404.327.732.73.732h3.656v-2.267h-3.655a.706.706 0 0 0-.731.73zm6.36-5.848l-3.436.73v2.925h2.194a.706.706 0 0 1 .73.731v3.728a.731.731 0 0 1-.73.731h-4.387a2.193 2.193 0 0 1-2.193-2.193v-.804c0-1.211.982-2.193 2.193-2.193h.73V8.503l-6.213 1.315h-.146a.754.754 0 0 1-.73-.585l-.05-.316-2.169.462h-.147a.727.727 0 0 1-.39-.122.632.632 0 0 1-.316-.462l-.828-3.9a.75.75 0 0 1 .098-.56.803.803 0 0 1 .462-.317l2.145-.439-.073-.34a.68.68 0 0 1 .121-.536.636.636 0 0 1 .463-.318L21.283.045c.631-.12 1.284 0 1.828.342.545.35.93.902 1.072 1.535l.56 2.68a2.462 2.462 0 0 1-1.876 2.877zm-3.676 10.522v1.911c0 .431-.349.781-.78.781h-8.034v2.846h3.626a.781.781 0 1 1 0 1.562H5.19a.781.781 0 1 1 0-1.562h3.625v-2.846H.781A.781.781 0 0 1 0 19.912V6.689c0-.431.35-.781.781-.781h4.836v1.563H1.563v11.66h16.066V18h1.562z" fill-rule="evenodd"/>
</symbol><symbol id="manekins-imitators" viewBox="0 0 23 24">
    <path d="M12.669 10.574a2.369 2.369 0 0 1 2.366-2.367 2.369 2.369 0 0 1 2.366 2.367 2.341 2.341 0 0 1-2.366 2.366 2.341 2.341 0 0 1-2.366-2.366m7.263-7.49A10.283 10.283 0 0 0 12.554 0c-1.59 0-3.085.334-4.436.99C4.46 2.7 2.096 6.402 2.096 10.42v1.28L.31 15.09c-.401.758-.411 1.585-.032 2.2.34.596.998.951 1.82.99v2.409a3.019 3.019 0 0 0 3.015 3.016l2.89-.426 5.481-.952c1.593-.215 2.747-1.676 2.582-3.261v-4.17c1.987-.463 3.398-2.231 3.398-4.322a4.47 4.47 0 0 0-4.466-4.466 4.47 4.47 0 0 0-4.466 4.466c0 2.05 1.44 3.851 3.397 4.32v4.192l.003.116c.054.516-.292.978-.766 1.029l-5.55.958-2.593.376c-.48-.045-.865-.447-.865-.914v-3.474a1.02 1.02 0 0 0-1.03-1.03h-.878a.745.745 0 0 1-.132-.013c.011-.03.027-.068.05-.115l1.908-3.626.046-.117c.033-.094.075-.21.075-.366v-1.565a8.314 8.314 0 0 1 4.817-7.518 8.327 8.327 0 0 1 3.541-.804c4.567 0 8.282 3.716 8.282 8.283a8.318 8.318 0 0 1-2.672 6.108 1 1 0 0 0-.381.801v5.764c0 .578.453 1.03 1.03 1.03a1.02 1.02 0 0 0 1.031-1.03v-5.336c1.918-1.906 3.015-4.57 3.015-7.331.038-2.708-1.001-5.274-2.927-7.228"/>
</symbol><symbol id="map" viewBox="0 0 15 19">
    <path d="M7.216 17.534C6.03 16.602.802 12.197.802 7.144.802 3.645 3.679.801 7.216.801c3.536 0 6.414 2.844 6.414 6.341 0 5.048-5.231 9.458-6.414 10.39M7.216 0C3.236 0 0 3.204 0 7.143c0 6.075 6.695 11.013 6.98 11.22a.399.399 0 0 0 .471 0c.285-.207 6.98-5.146 6.98-11.22C14.431 3.204 11.195 0 7.216 0m0 9.62A2.408 2.408 0 0 1 4.81 7.217 2.408 2.408 0 0 1 7.216 4.81 2.408 2.408 0 0 1 9.62 7.216 2.408 2.408 0 0 1 7.216 9.62m0-5.612a3.21 3.21 0 0 0-3.207 3.207 3.21 3.21 0 0 0 3.207 3.207 3.21 3.21 0 0 0 3.207-3.207 3.21 3.21 0 0 0-3.207-3.207" fill-rule="evenodd"/>
</symbol><symbol id="neurosurgery" viewBox="0 0 21 16">
    <path d="M16.747 7.68a.62.62 0 0 0 .614-.598.624.624 0 0 0-.585-.658c-.408-.02-.874-.273-1-.543a.61.61 0 0 0-.818-.3.634.634 0 0 0-.295.835c.36.78 1.306 1.227 2.053 1.263l.03.001m-7.638-.175a.615.615 0 0 0 .756-.438.632.632 0 0 0-.428-.774c-.096-.027-.784-.202-1.462.016-.435-.541-.97-.96-1.29-1.097a.61.61 0 0 0-.803.338.634.634 0 0 0 .33.823c.25.108 1.093.85 1.217 1.467a.62.62 0 0 0 .727.49.628.628 0 0 0 .479-.741c-.009-.044-.028-.086-.04-.13.212-.013.422.021.514.046M21 7.052c0-2.006-1.457-3.673-3.347-3.953C17.381 1.55 16.051.371 14.457.371c-.613 0-1.2.165-1.705.46A4.358 4.358 0 0 0 9.62.039c-.973.131-1.874.594-2.503 1.27-.727-.274-1.673-.25-2.526.095a3.504 3.504 0 0 0-2.088 2.303c-.51.16-.972.427-1.357.794C.407 5.205 0 6.198 0 7.298 0 8.422.504 9.5 1.348 10.185c.627.507 1.392.77 2.216.77.193 0 .39-.02.589-.05.708.905 1.752 1.45 2.924 1.45.69 0 1.241-.087 1.706-.227 1.336 1.198 3.058 1.217 3.91 1.133.78 1.784 2.089 2.61 2.149 2.648a.601.601 0 0 0 .842-.21.637.637 0 0 0-.202-.863c-.01-.008-.949-.613-1.572-1.888.572-.245.91-.533.956-.575a.637.637 0 0 0 .05-.887.606.606 0 0 0-.868-.052 2.856 2.856 0 0 1-1.1.524c-.077.016-1.617.313-2.885-.438.19-.123.373-.252.553-.38.566-.404 1.15-.824 2.137-1.12a.63.63 0 0 0 .416-.781.612.612 0 0 0-.764-.425c-1.18.356-1.879.856-2.495 1.298-.8.572-1.379.985-2.833.985-1.243 0-2.244-.878-2.55-2.237a.613.613 0 0 0-.738-.471.628.628 0 0 0-.462.753c.043.192.1.375.164.554a2.238 2.238 0 0 1-1.377-.497c-.554-.447-.883-1.158-.883-1.901 0-.748.268-1.415.753-1.878.487-.462 1.144-.678 1.9-.625a.615.615 0 0 0 .657-.584.624.624 0 0 0-.571-.67c-.019-.002-.037 0-.057-.002a2.29 2.29 0 0 1 1.132-.967c.762-.309 1.535-.212 1.876.036a.61.61 0 0 0 .864-.154c.42-.621 1.165-1.059 1.994-1.17.699-.094 1.39.051 2.004.408a3.13 3.13 0 0 0-.617 1.688c-.182.14-.493.338-.821.368a.624.624 0 0 0-.557.683.62.62 0 0 0 .669.568c.344-.032.655-.145.917-.278.065.166.138.331.231.49.174.3.552.395.844.219a.636.636 0 0 0 .214-.861c-.357-.612-.372-1.304-.042-1.899.364-.652 1.05-1.042 1.837-1.042 1.111 0 2.015.923 2.015 2.058 0 .347.276.628.616.628 1.478 0 2.68 1.228 2.68 2.737 0 1.51-1.202 2.738-2.68 2.738-.3 0-.557.221-.607.524-.334 2.036.416 4.296.448 4.392a.616.616 0 0 0 .782.39.631.631 0 0 0 .382-.798c-.006-.02-.56-1.699-.453-3.29C19.536 10.731 21 9.062 21 7.051"/>
</symbol><symbol id="nursing-2" viewBox="0 0 25 20">
    <path d="M10.244 3.69h1.515v1.502c0 .403.332.73.74.73.409 0 .74-.327.74-.73V3.69h1.515c.408 0 .74-.328.74-.731a.735.735 0 0 0-.74-.731h-1.516V.73a.735.735 0 0 0-.74-.731.736.736 0 0 0-.739.731V2.23h-1.515a.735.735 0 0 0-.739.73c0 .404.331.732.74.732zm13.277 11.94H13.238v-4.563h8.016c1.25 0 2.267 1.007 2.267 2.243v2.32zm-11.762-3.052H8.2a2.26 2.26 0 0 1 2.132-1.511h1.428v1.511zM1.48 15.63h10.28V14.04H1.48v1.59zm19.775-6.024H10.332a3.742 3.742 0 0 0-3.672 2.973H1.48V6.592a.735.735 0 0 0-.74-.73.735.735 0 0 0-.739.73v12.676c0 .404.33.732.74.732.408 0 .739-.328.739-.732v-2.175H23.52v2.175c0 .404.332.732.74.732s.739-.328.739-.732V13.31c0-2.042-1.681-3.704-3.746-3.704zm-16.73-.807c.485 0 .88.392.88.872a.877.877 0 0 1-.88.872.878.878 0 0 1-.882-.872c0-.48.396-.872.882-.872zm0 3.207c1.3 0 2.36-1.047 2.36-2.334 0-1.288-1.06-2.334-2.36-2.334-1.302 0-2.36 1.046-2.36 2.334 0 1.287 1.059 2.334 2.36 2.334z"/>
</symbol><symbol id="nursing" viewBox="0 0 20 21">
    <path d="M11.143 3.174h-.5v-.505A.648.648 0 0 0 10 2.017a.648.648 0 0 0-.643.652v.505h-.5a.648.648 0 0 0-.644.65c0 .36.289.652.644.652h.5v.507c0 .36.288.651.643.651a.648.648 0 0 0 .644-.651v-.507h.5a.647.647 0 0 0 .644-.651.648.648 0 0 0-.644-.651m4.319 14.215a10.226 10.226 0 0 0 1.405-4.989c.042 0 .083.004.125.004a.648.648 0 0 0 .644-.652.648.648 0 0 0-.644-.651c-2.743 0-5.215-1.183-6.455-3.086-.134-.217-.333-.627-.383-.926a.65.65 0 0 0-.728-.55.65.65 0 0 0-.545.737c.009.065.087.544.349 1.064C7.93 10.05 5.588 11.1 3.006 11.1a.648.648 0 0 0-.643.651c0 .36.288.652.643.652.043 0 .083-.002.125-.003.036 1.833.56 3.564 1.406 4.99-2.975-.835-3.25-4.027-3.25-5.098 0-2.752 1.324-5.197 3.37-6.77l.323 1.11c.1.347.46.541.8.442a.652.652 0 0 0 .436-.808L5.162 2.638c1.279-.852 3.014-1.335 4.837-1.335 1.822 0 3.558.483 4.838 1.336l-1.054 3.626a.652.652 0 0 0 .619.835.645.645 0 0 0 .617-.467l.323-1.113c2.047 1.574 3.37 4.021 3.37 6.772 0 1.072-.277 4.263-3.25 5.097m-5.463 2.308c-2.95 0-5.537-3.442-5.584-7.39 2.261-.304 4.275-1.33 5.584-2.859 1.31 1.53 3.324 2.555 5.585 2.859-.046 3.948-2.634 7.39-5.585 7.39M15.73 4.19l.473-1.63a.654.654 0 0 0-.225-.7C14.452.677 12.274 0 10 0 7.725 0 5.547.678 4.023 1.86a.655.655 0 0 0-.225.7l.474 1.632C1.692 5.983 0 8.942 0 12.292c0 3.072 1.495 6.374 5.645 6.6C6.851 20.194 8.381 21 10.001 21c1.618 0 3.148-.805 4.354-2.108 4.15-.226 5.645-3.528 5.645-6.6 0-3.348-1.693-6.31-4.272-8.102M11.29 16.165c-.7.503-1.879.503-2.578 0a.64.64 0 0 0-.898.151c-.207.294-.14.7.15.91.571.411 1.304.619 2.036.619.733 0 1.467-.208 2.038-.619a.659.659 0 0 0 .15-.91.639.639 0 0 0-.898-.151"/>
</symbol><symbol id="obstetrics" viewBox="0 0 13 26">
    <path d="M1.424 10.038L2.46 3.57c.225-1.412.902-2.126 2.011-2.126 1.233 0 1.67.977 1.67 1.816 0 .753-.344 1.305-1.02 1.64a.724.724 0 0 0-.328.966.714.714 0 0 0 .959.331c1.174-.58 1.821-1.624 1.821-2.937C7.574 1.64 6.51 0 4.472 0 2.634 0 1.386 1.217 1.046 3.34L.01 9.807a.722.722 0 0 0 .707.839.72.72 0 0 0 .707-.608zM10.78 20.3a5.794 5.794 0 0 0 2.17-5.32c-.346-2.565-2.226-4.518-4.657-4.914L7.76 7.874a.716.716 0 1 0-1.392.343l.65 2.677c.074.306.337.53.647.55 1.998.135 3.585 1.669 3.862 3.727a4.334 4.334 0 0 1-1.944 4.212.723.723 0 0 0-.312.78l.54 2.217H7.684c-.32 0-.6.211-.687.523l-.62 2.175a.72.72 0 0 0 .688.922c.31 0 .598-.206.687-.523l.471-1.652h2.5c.22 0 .429-.102.564-.276a.726.726 0 0 0 .132-.617l-.64-2.632zm-6.835 2.082H2.578l.997-6.501a.721.721 0 0 0-.6-.824.72.72 0 0 0-.817.604l-1.124 7.332c-.03.21.029.42.164.58.137.16.335.252.545.252h1.485v1.452a.72.72 0 0 0 .717.722.72.72 0 0 0 .716-.722v-2.175a.72.72 0 0 0-.716-.72zm3.183-6.552a.725.725 0 0 0-.244-.992l-3.96-2.406.782-4.881a.716.716 0 1 0-1.415-.232l-.858 5.363a.723.723 0 0 0 .337.733l4.375 2.657c.116.07.244.104.368.104a.706.706 0 0 0 .615-.346z"/>
</symbol><symbol id="omni-logo" viewBox="0 0 113 13">
    <path d="M9.368 2.088c.901 1.03 1.352 2.472 1.352 4.328 0 1.205-.203 2.25-.608 3.136-.405.885-.997 1.568-1.776 2.048s-1.717.72-2.816.72c-1.664 0-2.947-.52-3.848-1.56C.771 9.72.32 8.272.32 6.416c0-1.205.203-2.248.608-3.128.405-.88.997-1.557 1.776-2.032C3.483.781 4.421.544 5.52.544c1.664 0 2.947.515 3.848 1.544zm-5.208 1.6c-.277.539-.416 1.448-.416 2.728 0 1.28.139 2.195.416 2.744.277.55.73.824 1.36.824.64 0 1.096-.272 1.368-.816.272-.544.408-1.461.408-2.752 0-1.28-.139-2.19-.416-2.728-.277-.539-.73-.808-1.36-.808-.63 0-1.083.27-1.36.808zM24.88 12h-2.912l-.144-4.144-.016-.688a47.418 47.418 0 0 1-.032-1.456c0-.8.032-1.6.096-2.4l-1.52 7.536h-2.8l-1.616-7.536c.096 1.248.144 2.347.144 3.296 0 .544-.005.96-.016 1.248L15.936 12h-2.912L13.84.88h3.68l1.488 7.376L20.352.88h3.696L24.88 12zm11.39 0h-3.344l-3.2-8.592c.107.843.19 1.587.248 2.232.059.645.088 1.41.088 2.296V12h-2.336V.912h3.264l3.28 8.608a26.098 26.098 0 0 1-.352-4.128V.912h2.352V12zM42.236.928V12h-2.352V.928h2.352zM57.29 12l-.624-2.48h-3.472L52.569 12H50.12L53.529.928h2.864L59.785 12h-2.496zM53.64 7.776h2.576L54.92 2.672l-1.28 5.104zm15.11-6.744c.56.219 1.09.541 1.592.968l-1.136 1.184c-.395-.31-.765-.533-1.112-.672a3.238 3.238 0 0 0-1.208-.208c-.853 0-1.552.341-2.096 1.024s-.816 1.728-.816 3.136c0 1.472.216 2.533.648 3.184.432.65 1.09.976 1.976.976.672 0 1.259-.144 1.76-.432v-2.88h-1.664l-.224-1.568h3.968v5.408c-1.195.725-2.464 1.088-3.808 1.088-1.579 0-2.787-.49-3.624-1.472-.837-.981-1.256-2.416-1.256-4.304 0-1.205.227-2.243.68-3.112.453-.87 1.064-1.528 1.832-1.976.768-.448 1.621-.672 2.56-.672.725 0 1.368.11 1.928.328zm11.51-.056l-.176 1.216h-4.272v3.6h3.712v1.216h-3.712v3.776h4.576V12h-6.096V.976h5.968zM91.668 12h-1.264l-5.168-9.904c.085 1.333.128 2.592.128 3.776V12h-.912V1.04h1.232l5.2 9.904a47.952 47.952 0 0 1-.128-3.248V1.04h.912V12zm10.206-10.864c.416.16.826.405 1.232.736l-.416.512c-.384-.299-.747-.512-1.088-.64a3.361 3.361 0 0 0-1.184-.192c-1.078 0-1.952.408-2.624 1.224-.672.816-1.008 2.067-1.008 3.752 0 1.088.157 2.003.472 2.744.314.741.741 1.296 1.28 1.664.538.368 1.15.552 1.832.552.522 0 .965-.077 1.328-.232a4.833 4.833 0 0 0 1.12-.696l.416.512c-.81.736-1.776 1.104-2.896 1.104-.843 0-1.592-.219-2.248-.656-.656-.437-1.17-1.08-1.544-1.928-.374-.848-.56-1.87-.56-3.064 0-1.216.192-2.245.576-3.088.384-.843.91-1.477 1.576-1.904a4.054 4.054 0 0 1 2.232-.64c.586 0 1.088.08 1.504.24zm10.734-.032l-3.408 6.56V12h-.368V7.68l-3.456-6.576h.416l3.232 6.224 3.168-6.224h.416z"/>
</symbol><symbol id="organ-research" viewBox="0 0 22 17">
    <path d="M20.548 4.382c-.027-.751-.855-1.363-2.27-1.678a8.02 8.02 0 0 0-1.792-.196c-.408 0-.79.026-1.16.052-.738.05-1.457.074-2.075-.034-.888-.157-1.68-.333-2.447-.503-1.406-.312-2.618-.582-3.834-.582-.84 0-1.646.132-2.462.405-2.038.682-3.067 2.08-3.059 4.155.006 1.444.366 2.49.713 3.5.333.967.676 1.966.633 3.179-.029.817.101 1.418.367 1.692.09.093.256.218.638.218.64 0 1.588-.36 2.668-1.01.293-.176.56-.344.817-.508a4.575 4.575 0 0 1-1.336-3.246 4.603 4.603 0 0 1 1.37-3.278 4.661 4.661 0 0 1 3.3-1.361h.006c1.04 0 2.025.34 2.835.961a4.115 4.115 0 0 0-.32-1.26.72.72 0 0 1 .391-.942.728.728 0 0 1 .948.39c.48 1.143.557 2.244.255 3.299.015.027.027.056.04.084.977-.42 2.232-.868 3.954-1.387 1.05-.315 1.85-1.173 1.82-1.95m-6.814 5.49l-.006.003a3.063 3.063 0 0 0-.65-1.937.12.12 0 0 1 .003-.008c-.081-.105-.158-.212-.253-.307a3.106 3.106 0 0 0-2.203-.906h-.005a3.124 3.124 0 0 0-2.212.913 3.084 3.084 0 0 0-.919 2.198c-.001.83.323 1.608.912 2.193.061.061.133.107.2.163l.005-.005c.44.37.953.605 1.491.693a.173.173 0 0 1-.006.005c.168.028.338.05.513.05h.003a3.123 3.123 0 0 0 2.213-.913 3.08 3.08 0 0 0 .914-2.143m8.264-5.543c.054 1.448-1.145 2.871-2.85 3.384-1.764.53-2.997.972-3.93 1.385.037.236.061.476.06.721a4.586 4.586 0 0 1-.873 2.69l3.433 3.41L16.75 17l-3.432-3.411a4.66 4.66 0 0 1-2.707.868h-.006a4.66 4.66 0 0 1-2.062-.48c-.4.263-.828.538-1.322.835-1.341.809-2.493 1.219-3.42 1.219-.682 0-1.262-.228-1.68-.658-.566-.582-.82-1.48-.774-2.744.034-.948-.24-1.742-.556-2.662C.423 8.9.007 7.687 0 6.007-.01 3.32 1.427 1.358 4.046.482A9.078 9.078 0 0 1 6.971 0c1.375 0 2.66.286 4.15.617.75.166 1.527.34 2.384.49.483.084 1.068.06 1.722.015.394-.027.802-.055 1.26-.055.734 0 1.404.073 2.109.23 2.995.668 3.377 2.342 3.402 3.031m-9.696 4.663c.125.255.2.533.2.825-.001.501-.199.974-.557 1.329a1.887 1.887 0 0 1-2.331.267 28.27 28.27 0 0 0 1.35-1.172c.208-.19.408-.371.609-.547.277-.235.513-.468.729-.702"/>
</symbol><symbol id="organs" viewBox="0 0 19 29">
    <path d="M11.712 26.525c-2.358.666-5.962-1.248-8.707-7.029-2.218-4.67-1.208-7.442-.409-8.679.928-1.437 2.324-2.08 3.3-2.042 1.003.02 1.714.273 2.284.817-.516.913-1.288 2.181-2.724 2.36a.83.83 0 0 0 .204 1.646c2.337-.29 3.445-2.265 4.042-3.325.075-.134.143-.255.22-.381 1.364-2.237 2.791-3.132 3.881-3.467l.333.499C12.58 9.25 12.55 11.15 12.52 12.84c-.035 2.198-.064 3.934-3.885 6.307a.828.828 0 1 0 .876 1.409c4.588-2.85 4.63-5.31 4.668-7.689.017-1.057.035-2.078.42-3.206 1.68.553 2.6 2.057 2.729 4.493.268 5.13-3.066 11.648-5.616 12.37m-4.26-20.92a.829.829 0 0 0 .398-1.128c-.471-.932-.264-2.021-.057-2.678l1.19.274c-.335 1.276.203 2.28.622 2.695.16.159.38.239.605.24.011-.004.979-.016 1.492.587-.848.538-1.748 1.353-2.624 2.573-.972-.8-2.04-.997-2.881-1.04.302-1.054 1.214-1.502 1.256-1.522m11.53 8.462c-.16-3.04-1.449-5.1-3.663-5.918.145-.234.305-.473.488-.72a.83.83 0 0 0 .024-.956l-.972-1.451a.838.838 0 0 0-.834-.357 6.027 6.027 0 0 0-.825.21c-.623-1.006-1.737-1.412-2.565-1.505-.127-.271-.214-.762.206-1.455A.83.83 0 0 0 10.32.678L7.469.021a.833.833 0 0 0-.927.431c-.047.093-1.035 2.076-.452 4.066-.623.476-1.47 1.38-1.622 2.835-1.26.403-2.455 1.31-3.266 2.564-.986 1.526-2.258 4.893.305 10.29 2.866 6.037 6.522 8.1 9.278 8.1.492 0 .954-.066 1.378-.186 3.48-.985 7.113-8.47 6.82-14.053"/>
</symbol><symbol id="otorhinolaryngology" viewBox="0 0 14 19">
    <path d="M7.113 5.096c1.303.11 1.665 1.103 1.672 1.243a.72.72 0 0 0 .725.714c.4 0 .725-.32.725-.715 0-.843-.88-2.49-3-2.667C4.819 3.465 3.188 5.545 2.83 7.7c-.218 1.315.133 2.25.918 2.437a.99.99 0 0 1 .788 1.01c-.02.512-.418.882-1.066.988a.718.718 0 0 0-.597.822.724.724 0 0 0 .835.589c1.339-.22 2.232-1.14 2.277-2.346.042-1.112-.665-2.081-1.737-2.41-.107-.369.002-1.5.637-2.482.57-.88 1.317-1.286 2.227-1.213M6.572 0C1.751 0 0 3.822 0 6.39a.72.72 0 0 0 .725.716c.4 0 .725-.32.725-.715 0-1.995 1.364-4.96 5.122-4.96 3.743 0 5.978 2.768 5.978 7.405 0 4.735-3.123 8.733-6.82 8.733-1.675 0-2.815-.695-3.21-1.959a.73.73 0 0 0-.908-.472.714.714 0 0 0-.479.894C1.715 17.89 3.433 19 5.73 19 10.212 19 14 14.346 14 8.837 14 3.387 11.154 0 6.572 0"/>
</symbol><symbol id="parturition" viewBox="0 0 24 20">
    <path d="M19.152 5.437a.688.688 0 0 0-.49.839c.075.29-.308.536-.327.548a.688.688 0 0 0 .28 1.275.679.679 0 0 0 .413-.09c.485-.28 1.233-1.035.961-2.081a.685.685 0 0 0-.837-.491m2.185 3.676c-.838 1.202-.93 1.641-1.035 2.377a8.256 8.256 0 0 1-.229 1.139c-.775 2.85-4.597 4.94-7.82 5.675-2.832.645-5.23.304-6.26-.89-1.39-1.613-1.16-3.981-.216-5.486a.686.686 0 1 0-1.16-.733c-.16.256-.305.534-.432.827-1.03.256-1.849.21-2.322-.143-.426-.318-.492-.826-.493-1.1-.007-1.587.773-2.378 1.328-2.432.315-.033.5.188.607.422a7.588 7.588 0 0 0-.465.421.689.689 0 0 0 .41 1.173c.198.02.401-.045.553-.195 1.423-1.41 2.872-1.594 3.682-1.322.544.184.884.584 1.01 1.148-.414.724-.462 1.433-.359 1.87.038.156.097.309.17.455-.016.12-.064.48-.355.95a.689.689 0 0 0 .512 1.046c.252.026.51-.09.653-.322.117-.187.207-.366.278-.53.085.054.172.106.265.157.744.406 1.658.661 2.643.763a10.295 10.295 0 0 0 4.41-.529.688.688 0 0 0-.457-1.296c-2.363.837-4.735.51-5.942-.146-.471-.258-.77-.565-.843-.867-.026-.11-.03-.494.26-.95.35-.548 1.173-1.273 3.087-1.747.199.36.44.638.7.847a6.764 6.764 0 0 0-1.407.514.688.688 0 0 0 .622 1.226c1.252-.64 2.984-.664 3.001-.665a.686.686 0 0 0 .34-1.28c-.017-.01-.447-.26-1.361-.664-.942-.414-1.248-1.801-.864-3.904.228-1.255.849-2.247 1.793-2.868 1.038-.682 2.37-.857 3.853-.508 1.36.32 2.406 1.2 2.87 2.415.585 1.53.22 3.36-1.027 5.152m2.308-5.645C23.016 1.82 21.617.63 19.808.206c-1.832-.43-3.578-.183-4.918.697-1.247.82-2.096 2.16-2.39 3.771-.217 1.185-.228 2.121-.109 2.864-.966.248-1.773.581-2.424.992-.097-.466-.1-1.142.309-1.955.62-1.234.68-2.58.169-3.693C9.928 1.761 8.876.955 7.483.612a.688.688 0 0 0-.325 1.337c.994.243 1.7.765 2.042 1.51.34.74.289 1.627-.149 2.498a4.567 4.567 0 0 0-.504 1.878 3.006 3.006 0 0 0-.625-.292c-1.072-.363-2.316-.184-3.493.454-.447-.77-1.187-1.083-1.863-1.02C1.284 7.102-.01 8.451 0 10.784c.004.916.375 1.697 1.046 2.197.332.248.822.485 1.52.557.337.035.731.022 1.173-.038-.29 1.587-.027 3.37 1.217 4.813.791.918 2.061 1.474 3.635 1.636 1.176.122 2.523.025 3.967-.304 3.73-.85 7.91-3.238 8.84-6.654.162-.598.219-.992.263-1.309.08-.56.112-.792.8-1.782 1.494-2.145 1.925-4.49 1.184-6.432"/>
</symbol><symbol id="pediatrics" viewBox="0 0 20 18">
    <path d="M10.971 13.424a2.684 2.684 0 0 1-1.942 0 .642.642 0 0 0-.827.35c-.13.32.03.683.357.809a3.983 3.983 0 0 0 2.883 0 .62.62 0 0 0 .358-.81.643.643 0 0 0-.829-.349m3.031-4.838c-.266.26-.62.405-.997.405s-.73-.144-.996-.404a.647.647 0 0 0-.901-.001.613.613 0 0 0-.001.88c.506.497 1.18.77 1.898.77a2.7 2.7 0 0 0 1.9-.768.614.614 0 0 0-.002-.882.648.648 0 0 0-.9 0m-5.11 0a.648.648 0 0 0-.9 0c-.533.521-1.462.521-1.994 0a.648.648 0 0 0-.901 0 .614.614 0 0 0-.001.882 2.7 2.7 0 0 0 1.899.769c.717 0 1.391-.273 1.898-.77a.615.615 0 0 0 0-.881m9.34 2.117a7.886 7.886 0 0 0-.054-2.01c.329.228.546.602.546 1.026 0 .4-.195.753-.493.984m-8.232 6.051c-3.86 0-7-3.068-7-6.84C3 7.744 4.035 5.74 5.84 4.411c.643-.472 1.166-.995 1.67-1.503.923-.926 1.657-1.664 2.715-1.664.03 0 .062 0 .094.002.892.037 1.564.683 1.564 1.504v.044a.677.677 0 0 0-.005.077c-.063.772-.726 1.382-1.532 1.382-.28 0-.55-.18-.652-.308a.647.647 0 0 0-.894-.107.613.613 0 0 0-.11.875c.29.362.897.785 1.656.785 1.2 0 2.227-.74 2.63-1.776C15.41 4.84 17 7.245 17 9.913c0 3.773-3.14 6.841-7 6.841m-8.233-6.052a1.24 1.24 0 0 1-.492-.983c0-.424.218-.793.547-1.021-.062.399-.096.804-.096 1.216 0 .266.015.529.04.788m16.036-3.463a8.173 8.173 0 0 0-4.663-4.807c-.161-1.328-1.318-2.37-2.766-2.43C8.69-.054 7.628 1.005 6.597 2.04c-.47.473-.958.962-1.521 1.376-1.36 1-2.348 2.328-2.885 3.824C.954 7.42 0 8.46 0 9.72c0 1.215.888 2.23 2.062 2.46C3.067 15.538 6.242 18 10 18c3.757 0 6.932-2.462 7.937-5.821 1.175-.23 2.063-1.245 2.063-2.46 0-1.26-.958-2.304-2.198-2.48"/>
</symbol><symbol id="phone" viewBox="0 0 18 18">
    <path d="M9.315 15.817c-1.435-.73-2.852-1.777-4.1-3.026-1.247-1.25-2.292-2.668-3.022-4.104C1.402 7.128 1 5.62 1 4.202c0-.919.857-1.807 1.224-2.145C2.754 1.57 3.586 1 4.191 1c.302 0 .654.197 1.11.62.341.315.724.742 1.107 1.235.231.299 1.386 1.82 1.386 2.548 0 .598-.677 1.014-1.392 1.454a7.89 7.89 0 0 0-.77.51c-.22.179-.26.272-.267.293.76 1.894 3.083 4.217 4.976 4.975.017-.005.11-.042.29-.267.166-.206.343-.493.512-.769.44-.715.857-1.392 1.454-1.392.73 0 2.25 1.154 2.547 1.385.494.383.92.767 1.237 1.107.422.457.619.81.619 1.11 0 .606-.57 1.441-1.055 1.973-.34.37-1.228 1.23-2.148 1.23-1.415 0-2.925-.403-4.482-1.195z" stroke-width=".8" fill-rule="evenodd"/>
</symbol><symbol id="production" viewBox="0 0 56 61">
    <path d="M14.91 43.446c-.4.395-.626.948-.626 1.506 0 .549.227 1.102.627 1.496a2.123 2.123 0 0 0 3.628-1.496c0-.567-.227-1.107-.622-1.506-.8-.793-2.225-.793-3.006 0zm-5.8 0a2.156 2.156 0 0 0-.612 1.506c0 .549.227 1.102.613 1.496.4.4.949.626 1.517.626.554 0 1.103-.227 1.503-.626.395-.394.622-.947.622-1.496 0-.567-.227-1.107-.622-1.506-.795-.793-2.23-.793-3.02 0zm36.271-.625h-23.18a2.126 2.126 0 0 0 0 4.249h23.18c1.177 0 2.13-.953 2.13-2.123a2.129 2.129 0 0 0-2.13-2.126zm-41.125 7.5h47.488V4.244H4.256v46.077zM53.874 0H2.13C.954 0 0 .952 0 2.122v50.326c0 1.17.954 2.122 2.13 2.122h6.363v4.308a2.128 2.128 0 0 0 4.256 0V54.57h7.33v4.308a2.126 2.126 0 0 0 4.251 0V54.57h29.544A2.124 2.124 0 0 0 56 52.448V2.122C56 .952 55.05 0 53.874 0zM12.75 35.32h30.507V12.842H12.749V35.32zm-2.126 4.25h34.758c1.177 0 2.13-.953 2.13-2.127V10.72a2.129 2.129 0 0 0-2.13-2.127H10.623c-1.176 0-2.13.952-2.13 2.127v26.723c0 1.174.954 2.126 2.13 2.126zm28.668-16.112h-2.93l-1.308-3.56a2.129 2.129 0 0 0-1.998-1.392h-.01c-.89 0-1.689.562-1.988 1.401l-1.858 5.147-2.725-8.743a2.133 2.133 0 0 0-1.962-1.492c-.863-.05-1.73.517-2.053 1.36l-2.793 7.279h-2.957a2.128 2.128 0 0 0-2.125 2.126c0 1.17.953 2.123 2.125 2.123h4.415c.88 0 1.671-.544 1.99-1.365l1.12-2.92 2.78 8.942A2.127 2.127 0 0 0 29 33.856h.046c.899 0 1.698-.558 2.003-1.402L33.1 26.76c.391.58 1.05.948 1.776.948h4.41a2.125 2.125 0 1 0 .005-4.249z" fill-rule="evenodd"/>
</symbol><symbol id="radiology" viewBox="0 0 23 21">
    <path d="M20.744 17.953c-.353.61-1.142.946-2.226.946H3.681c-1.082 0-1.872-.337-2.225-.946-.352-.61-.248-1.462.294-2.4L9.168 2.704C9.71 1.766 10.396 1.25 11.1 1.25c.705 0 1.39.516 1.931 1.454l7.42 12.85c.54.937.645 1.789.293 2.399zm.789-3.025L14.113 2.08C13.34.74 12.27 0 11.1 0 9.93 0 8.86.738 8.086 2.08L.667 14.927c-.774 1.34-.878 2.636-.293 3.65.585 1.013 1.76 1.57 3.307 1.57h14.837c1.548 0 2.723-.557 3.308-1.57s.48-2.31-.293-3.65zM7.74 16.702a5.704 5.704 0 0 1-2.281-3.941h2.865c.128.56.424 1.072.847 1.463l-1.43 2.478zm2.563-3.186a1.603 1.603 0 0 1-.799-1.38.625.625 0 0 0-.625-.625H4.8a.626.626 0 0 0-.625.625 6.95 6.95 0 0 0 3.464 5.992.622.622 0 0 0 .855-.228l2.039-3.53a.625.625 0 0 0-.229-.854zm4.154 3.187l-1.431-2.478c.424-.391.72-.903.848-1.464h2.864a5.7 5.7 0 0 1-2.281 3.942zm2.941-5.192h-4.08a.625.625 0 0 0-.624.625c0 .566-.307 1.094-.8 1.38a.625.625 0 0 0-.228.853l2.038 3.53a.627.627 0 0 0 .855.23 6.947 6.947 0 0 0 3.464-5.993.625.625 0 0 0-.625-.625zm-4.023-4.568l-1.43 2.48a2.854 2.854 0 0 0-1.692 0l-1.431-2.48a5.717 5.717 0 0 1 4.553 0zM9.45 10.53a.622.622 0 0 0 .853.229 1.589 1.589 0 0 1 1.593 0 .62.62 0 0 0 .474.062.625.625 0 0 0 .38-.291l2.038-3.533c.172-.299.07-.68-.228-.853-2.104-1.217-4.814-1.218-6.92 0a.625.625 0 0 0-.229.853L9.45 10.53zm2.668 1.606a1.019 1.019 0 1 0-2.037 0 1.019 1.019 0 0 0 2.037 0z" fill-rule="evenodd"/>
</symbol><symbol id="robots-simulators" viewBox="0 0 13 33">
    <path d="M6.5 1.526c.664 0 1.205.533 1.205 1.189 0 .785-.675 1.787-1.205 1.787-.528 0-1.204-1.002-1.204-1.787 0-.656.54-1.189 1.204-1.189zm0 4.5c1.548 0 2.749-1.78 2.749-3.312C9.249 1.218 8.016 0 6.5 0S3.753 1.218 3.753 2.714c0 1.532 1.2 3.312 2.747 3.312zM.47 12.213a.775.775 0 0 0 1.012-.404l1.855-4.313a.759.759 0 0 0-.41-1 .776.776 0 0 0-1.011.403L.062 11.213a.76.76 0 0 0 .408 1zm11.758.484a.767.767 0 0 0-.772.763v4.28c0 .421.345.763.772.763A.767.767 0 0 0 13 17.74v-4.28a.767.767 0 0 0-.772-.763zm-11.456 0A.767.767 0 0 0 0 13.46v4.28c0 .421.345.763.772.763a.767.767 0 0 0 .772-.763v-4.28a.767.767 0 0 0-.772-.763zm10.745-.888a.773.773 0 0 0 1.013.404.76.76 0 0 0 .409-1L11.084 6.9a.776.776 0 0 0-1.012-.403.76.76 0 0 0-.409 1l1.854 4.313zm-2.9 8.952a.767.767 0 0 0-.772.763v2.882c0 .421.346.763.772.763a.768.768 0 0 0 .772-.763v-2.882a.767.767 0 0 0-.772-.763zm0 9.217a.767.767 0 0 0 .772-.762v-2.883a.767.767 0 0 0-.772-.762.767.767 0 0 0-.772.762v2.883c0 .42.346.762.772.762zm.546.614a.78.78 0 0 0-1.091 0 .757.757 0 0 0 0 1.08l1.121 1.105c.15.15.347.223.545.223a.774.774 0 0 0 .547-.223.756.756 0 0 0-.001-1.079l-1.12-1.106zM3.61 29.216c0 .42.345.762.771.762a.767.767 0 0 0 .772-.762v-2.883a.767.767 0 0 0-.772-.762.767.767 0 0 0-.771.762v2.883zm.226 1.377l-1.12 1.106a.755.755 0 0 0 0 1.078c.15.15.348.223.546.223a.772.772 0 0 0 .546-.223l1.12-1.106a.757.757 0 0 0 0-1.078.78.78 0 0 0-1.092 0zm.545-5.424a.768.768 0 0 0 .772-.763v-2.882a.767.767 0 0 0-.772-.763.767.767 0 0 0-.771.763v2.882c0 .421.345.763.771.763zm3.874-6.535a.654.654 0 0 1-.19.462.756.756 0 0 0 .013 1.078.778.778 0 0 0 1.092-.013 2.16 2.16 0 0 0 .628-1.527c0-1.207-.994-2.19-2.216-2.19-.362 0-.636.102-.836.177-.243.092-.248.093-.493 0a2.261 2.261 0 0 0-.835-.177c-1.222 0-2.217.983-2.217 2.19 0 .574.223 1.116.627 1.526a.778.778 0 0 0 1.092.015.756.756 0 0 0 .014-1.078.66.66 0 0 1-.19-.463.67.67 0 0 1 .674-.664c.075 0 .151.026.288.078.192.072.456.17.794.17.337 0 .601-.098.793-.17.138-.053.213-.078.29-.078a.67.67 0 0 1 .672.664zm-5.539-8.593c0 .421.346.763.772.763h2.24v.692h-2.24a.767.767 0 0 0-.772.763c0 .422.346.763.772.763h2.24v.692h-.76a.767.767 0 0 0-.772.763c0 .421.346.763.773.763h.773c.066.355.38.625.759.625s.692-.27.757-.626h.775a.767.767 0 0 0 .771-.763.767.767 0 0 0-.772-.762h-.76v-.693h2.24a.767.767 0 0 0 .772-.763.767.767 0 0 0-.773-.763l-2.24.001v-.692l2.24-.001a.767.767 0 0 0 .773-.762.768.768 0 0 0-.772-.763h-2.24v-.693h.993a.767.767 0 0 0 .771-.762.767.767 0 0 0-.771-.763H7.258a.767.767 0 0 0-.758-.624c-.38 0-.692.269-.758.625H4.735a.767.767 0 0 0-.771.762c0 .422.345.763.771.763h.993v.692h-2.24a.767.767 0 0 0-.772.763z"/>
</symbol><symbol id="saving-lives-new" viewBox="0 0 25 22">
    <path d="M22.675 19.92a.686.686 0 0 1-.49.204l-7.904.014a.698.698 0 0 1-.696-.693l-.025-7.733-4.822-2.706-1.166 6.36a3.449 3.449 0 0 0-1.024-.09c.005-3.47.014-9.272.013-9.39l.004-.042-.002-.042c-.034-1.045.375-1.363.722-1.531 1.185-.652 3.412.957 4.129 1.6 1.864 1.492 4.951 4.306 5.303 5.512.086.28.155.614.078 1.156l-1.619 6.205 7.007-.01a.696.696 0 0 1 .492 1.185M9.008 15.454l.775-4.224 2.351 1.32.016 4.794c-.762-.759-1.862-1.467-3.142-1.89m2.781 4.508c-.084.1-.274.158-.522.159l-1.367.002a3.42 3.42 0 0 0 .069-2.67c1.114.667 1.794 1.504 1.874 1.934.05.267.031.472-.054.575m-3.781.319l-1.24.986-1.245-.983a1.998 1.998 0 0 1-.775-1.571c0-1.111.905-2.016 2.016-2.016 1.11 0 2.014.905 2.014 2.016 0 .606-.281 1.178-.77 1.568m-4.377-.149l-1.547.003c-.163-.034-.665-.184-.655-.738.006-.383.862-1.417 2.218-2.148a3.42 3.42 0 0 0-.016 2.883M3.563 4.846a1.71 1.71 0 0 1-1.708-1.709A1.71 1.71 0 0 1 3.563 1.43c.943 0 1.71.766 1.71 1.708a1.71 1.71 0 0 1-1.71 1.709m18.62 12.46l-5.157.008 1.162-4.453.014-.074c.101-.665.064-1.228-.117-1.813-.587-2.017-5.248-5.795-5.747-6.192-.343-.31-3.407-2.973-5.653-1.804A3.133 3.133 0 0 0 3.563 0 3.14 3.14 0 0 0 .426 3.137a3.14 3.14 0 0 0 3.137 3.137c.577 0 1.11-.166 1.574-.438v.014c-.004.298-.006 1.748-.017 9.347-2.75.586-5.095 2.707-5.12 4.175-.025 1.498 1.243 2.083 1.917 2.184l.052.008 4.436-.007 4.865-.008c.633-.001 1.173-.207 1.535-.582.384.37.905.6 1.48.6h.08l7.822-.015c.567 0 1.1-.222 1.501-.625.4-.401.62-.935.619-1.503a2.129 2.129 0 0 0-2.124-2.119" fill-rule="evenodd"/>
</symbol><symbol id="saving-lives" viewBox="0 0 25 17">
    <path d="M1.318 4.59H23.68V3.8H1.318v.79zm11.18 4.075L7.807 5.91h9.385l-4.692 2.755zM1.9 1.32h5.81a.581.581 0 0 1 0 1.161h-5.81a.58.58 0 0 1 0-1.161zm22.44 1.162H9.51c.06-.185.1-.376.1-.58C9.61.85 8.757 0 7.71 0H1.9C.852 0 0 .852 0 1.9c0 .284.066.551.178.793A.656.656 0 0 0 0 3.142v2.11c0 .363.295.66.66.66H5.2l5.996 3.52-4.448 2.61a.66.66 0 0 0 .669 1.139l5.082-2.985 5.083 2.984a.659.659 0 0 0 .667-1.139l-4.447-2.61 5.996-3.52h4.541a.66.66 0 0 0 .66-.66v-2.11a.662.662 0 0 0-.66-.66zm-4.128 13.2a.84.84 0 1 1 .002-1.68.84.84 0 0 1-.002 1.68zm0-2.999c-1.19 0-2.158.969-2.158 2.16 0 1.189.968 2.158 2.158 2.158s2.159-.969 2.159-2.159-.97-2.159-2.16-2.159zM4.758 15.681a.84.84 0 0 1 0-1.679.84.84 0 0 1 0 1.679zm0-2.999c-1.19 0-2.158.969-2.158 2.16C2.6 16.03 3.568 17 4.758 17s2.159-.969 2.159-2.159-.969-2.159-2.159-2.159z" fill-rule="evenodd"/>
</symbol><symbol id="search-big" viewBox="0 0 32 32">
    <g transform="rotate(-45 12.803 9.546)" stroke-width="2" fill-rule="evenodd">
        <circle cx="10.678" cy="10.393" r="10"/>
        <path d="M10.678 36.71V20.92" stroke-linecap="square"/>
    </g>
</symbol><symbol id="search" viewBox="0 0 17 17">
    <g transform="rotate(-45 7 4.172)" stroke-width="2" fill-rule="evenodd" opacity=".4">
        <circle cx="5" cy="5" r="5"/>
        <path d="M5 17.75v-7.5" stroke-linecap="square"/>
    </g>
</symbol><symbol id="skill" viewBox="0 0 64 64">
    <path d="M15.101 48.9c-3.8-3.8-3.798-9.98 0-13.779l1.277-1.28 4.806 4.805a2.25 2.25 0 0 0 3.18-3.182l-4.806-4.801 2.882-2.882 4.803 4.804a2.25 2.25 0 0 0 3.18-3.181l-4.803-4.805 2.882-2.88 4.803 4.804a2.249 2.249 0 0 0 3.18-3.18l-4.802-4.804 2.878-2.88 4.806 4.804a2.249 2.249 0 0 0 3.18-3.18l-4.805-4.803 2.881-2.882 13.778 13.779-25.52 25.52c-3.799 3.799-9.98 3.8-13.78.003M.66 63.341c.88.879 2.302.879 3.18 0l9.81-9.81c5.562 4.03 13.403 3.556 18.415-1.452l25.519-25.52 1.887 1.884c.878.878 2.3.878 3.179 0 .88-.878.88-2.302 0-3.18L52.286 14.898l3.073-3.076 4.8 4.804a2.249 2.249 0 0 0 3.181-3.18L50.556.66a2.249 2.249 0 0 0-3.18 3.18l4.802 4.803-3.073 3.076L38.74 1.35a2.246 2.246 0 0 0-3.18 0 2.247 2.247 0 0 0 0 3.18l1.886 1.887L11.92 31.94c-5.01 5.01-5.485 12.845-1.452 18.414L.657 60.16a2.25 2.25 0 0 0 .002 3.18" fill-rule="evenodd"/>
</symbol><symbol id="speciality" viewBox="0 0 64 66">
    <path d="M35.658 9.974h-1.6V8.388c0-1.13-.921-2.047-2.06-2.047-1.136 0-2.06.917-2.06 2.047v1.586h-1.599c-1.136 0-2.06.917-2.06 2.046 0 1.132.924 2.048 2.06 2.048h1.599v1.592c0 1.13.924 2.048 2.06 2.048 1.139 0 2.06-.917 2.06-2.048v-1.592h1.6c1.138 0 2.06-.916 2.06-2.048 0-1.129-.922-2.046-2.06-2.046m13.82 44.678c2.707-4.48 4.381-9.923 4.497-15.68.135.002.264.01.4.01 1.137 0 2.06-.917 2.06-2.047 0-1.13-.923-2.047-2.06-2.047-8.777 0-16.69-3.718-20.657-9.696-.43-.686-1.064-1.972-1.224-2.913-.19-1.113-1.219-1.893-2.33-1.727a2.047 2.047 0 0 0-1.746 2.315c.03.206.28 1.71 1.118 3.345-4.156 5.375-11.653 8.67-19.917 8.67-1.136 0-2.059.919-2.059 2.048 0 1.132.923 2.048 2.06 2.048.135 0 .265-.008.4-.01.115 5.76 1.793 11.2 4.5 15.683C4.998 52.028 4.117 41.996 4.117 38.628c0-8.648 4.238-16.334 10.787-21.276l1.032 3.49c.32 1.087 1.471 1.7 2.557 1.388a2.043 2.043 0 0 0 1.397-2.54L16.517 8.291c4.094-2.679 9.646-4.197 15.481-4.197 5.83 0 11.383 1.518 15.481 4.199L44.105 19.69a2.044 2.044 0 0 0 1.397 2.54 2.058 2.058 0 0 0 2.557-1.385l1.035-3.496c6.551 4.945 10.785 12.637 10.785 21.284-.001 3.37-.887 13.396-10.401 16.019m-17.48 7.253c-9.442 0-17.721-10.816-17.869-23.227 7.236-.954 13.679-4.178 17.87-8.983 4.192 4.805 10.634 8.027 17.87 8.983-.146 12.41-8.427 23.227-17.87 23.227M50.33 13.17l1.517-5.124a2.033 2.033 0 0 0-.722-2.2C46.248 2.129 39.278 0 31.999 0c-7.28 0-14.25 2.132-19.124 5.847a2.037 2.037 0 0 0-.722 2.2l1.518 5.127C5.415 18.804 0 28.103 0 38.629c0 9.657 4.783 20.037 18.065 20.747C21.923 63.466 26.818 66 32.002 66c5.18 0 10.075-2.531 13.934-6.624C59.218 58.666 64 48.286 64 38.63c-.003-10.52-5.416-19.828-13.67-25.46M36.125 50.804c-2.237 1.583-6.012 1.583-8.25 0A2.07 2.07 0 0 0 25 51.28c-.66.924-.445 2.2.483 2.86 1.827 1.291 4.17 1.943 6.515 1.943 2.346 0 4.692-.652 6.52-1.944a2.046 2.046 0 0 0 .48-2.859 2.067 2.067 0 0 0-2.873-.477" fill-rule="evenodd"/>
</symbol><symbol id="surgery" viewBox="0 0 23 22">
    <path d="M10.368 13.944l-1.373 1.398c-.49.499-.693 1.1-.873 1.632-.172.507-.321.946-.683 1.314-2.094 2.133-4.51 2.463-5.609 2.322a2.295 2.295 0 0 1-.264-.047l6.317-6.435 1.334-1.357 1.151 1.173zm2.357-5.599h-1.002l1.15-1.17h2.34c.37 0 .67-.305.67-.682 0-.376-.3-.681-.67-.681l-1-.001 1.148-1.17h2.34c.37 0 .67-.305.67-.682 0-.376-.3-.682-.67-.682h-1l1.24-1.263c.822-.838 2.26-.837 3.082 0 .85.867.85 2.275.002 3.14l-8.057 8.204a.915.915 0 0 1-1.28 0l-1.802-1.835a.938.938 0 0 1 0-1.306l.498-.507h2.341c.37 0 .67-.306.67-.682 0-.377-.3-.683-.67-.683zm9.246-7.295A3.464 3.464 0 0 0 19.48 0c-.94 0-1.823.372-2.487 1.049L8.94 9.253a2.323 2.323 0 0 0-.52 2.4L.358 19.865c-.43.438-.371.889-.326 1.062.082.31.345.724 1.135.94.32.087.712.133 1.134.133.796 0 3.584-.198 6.087-2.747.58-.591.814-1.28 1.002-1.835.158-.466.283-.835.554-1.11l1.481-1.51a2.25 2.25 0 0 0 2.492-.475l8.057-8.204a3.638 3.638 0 0 0-.002-5.069z" fill-rule="evenodd"/>
</symbol><symbol id="surgical-suture" viewBox="0 0 16 16">
    <path d="M15.563 7.052a.967.967 0 1 1-1.368 1.368L11.57 5.797l-2.26 2.26 2.623 2.624a.967.967 0 1 1-1.368 1.368L7.942 9.426l-2.26 2.26 2.623 2.624a.967.967 0 1 1-1.368 1.368l-2.623-2.623-2.661 2.661a.965.965 0 0 1-1.37 0 .967.967 0 0 1 0-1.368l2.662-2.661L.322 9.064a.967.967 0 1 1 1.369-1.369l2.623 2.623 2.26-2.26L3.95 5.435A.967.967 0 1 1 5.32 4.067L7.942 6.69l2.26-2.26L7.58 1.805A.967.967 0 1 1 8.948.438l2.623 2.623L14.348.284a.967.967 0 1 1 1.368 1.368L12.94 4.429l2.623 2.623z" fill-rule="evenodd"/>
</symbol><symbol id="trauma" viewBox="0 0 20 24">
    <path d="M18.78 21.223v-4.55c0-2.358-.83-3.08-2.094-3.374l1.295 9.268c.473-.254.8-.758.8-1.344zm-2.006 1.52l-1.356-9.704-1.91-.385-1.3 10.09h4.566zm-5.405-3.04H9.838c-.814 0-1.476.683-1.476 1.52 0 .84.662 1.52 1.476 1.52h1.14l.39-3.04zM20 16.674v4.55c0 1.422-1.043 2.595-2.381 2.756-.019.005-.036.011-.055.014a.57.57 0 0 1-.088.007c-.012 0-.024-.006-.037-.007-.044.002-.09.007-.134.007H9.838c-1.486 0-2.695-1.246-2.695-2.776 0-1.53 1.21-2.776 2.695-2.776h1.693l.792-6.149c-.784-.518-.92-1.69-.855-2.403a.632.632 0 0 1 .24-.443c1.188-.926 1.956-2.662 1.956-4.423 0-2.081-1.644-3.774-3.663-3.774-2.021 0-3.664 1.693-3.664 3.774 0 1.761.767 3.498 1.956 4.424a.633.633 0 0 1 .242.486c.067.864-.155 2.334-1.406 2.586l-3.661.737c-1.35.273-2.248.956-2.248 3.41v6.699A.62.62 0 0 1 .61 24a.62.62 0 0 1-.61-.628v-6.7c0-2.721 1.027-4.196 3.234-4.64l3.66-.738c.336-.068.416-.67.427-1.035-1.347-1.19-2.204-3.204-2.204-5.23C5.117 2.258 7.308 0 10.001 0c2.692 0 4.882 2.257 4.882 5.03 0 2.025-.857 4.04-2.205 5.23.011.371.094.966.427 1.034l3.661.737c2.206.445 3.234 1.92 3.234 4.642zM5.132 18.657v4.715a.62.62 0 0 1-.61.628.62.62 0 0 1-.61-.628v-4.715a.62.62 0 0 1 .61-.628c.338 0 .61.282.61.628z" fill-rule="evenodd"/>
</symbol><symbol id="uro" viewBox="0 0 16 18">
    <path d="M8 16.657c-1.397 0-2.533-1.165-2.533-2.595 0-.339.961-.961 2.533-.961 1.57 0 2.532.623 2.532.961 0 1.43-1.136 2.595-2.532 2.595M13.237.195A.645.645 0 0 0 12.31.2a.683.683 0 0 0 .004.95c1.465 1.488 2.374 3.532 2.374 5.332 0 1.83-.956 3.11-2.843 3.82V5.564a.664.664 0 0 0-.656-.673.664.664 0 0 0-.656.673v6.745c-.667-.344-1.54-.552-2.533-.552-.993 0-1.866.209-2.533.552V5.564a.664.664 0 0 0-.656-.673.664.664 0 0 0-.656.673v4.733C2.27 9.587 1.312 8.308 1.312 6.48c0-1.8.91-3.843 2.374-5.33A.684.684 0 0 0 3.69.198a.645.645 0 0 0-.927-.004C1.058 1.925 0 4.335 0 6.48c0 2.542 1.471 4.386 4.156 5.238v2.343C4.156 16.233 5.88 18 8 18s3.845-1.767 3.845-3.94v-2.342C14.53 10.866 16 9.022 16 6.48c0-2.146-1.058-4.555-2.763-6.286" fill-rule="evenodd"/>
</symbol><symbol id="urology" viewBox="0 0 16 18">
    <path d="M8 16.657c-1.397 0-2.533-1.165-2.533-2.595 0-.339.961-.961 2.533-.961 1.57 0 2.532.623 2.532.961 0 1.43-1.136 2.595-2.532 2.595M13.237.195A.645.645 0 0 0 12.31.2a.683.683 0 0 0 .004.95c1.465 1.488 2.374 3.532 2.374 5.332 0 1.83-.956 3.11-2.843 3.82V5.564a.664.664 0 0 0-.656-.673.664.664 0 0 0-.656.673v6.745c-.667-.344-1.54-.552-2.533-.552-.993 0-1.866.209-2.533.552V5.564a.664.664 0 0 0-.656-.673.664.664 0 0 0-.656.673v4.733C2.27 9.587 1.312 8.308 1.312 6.48c0-1.8.91-3.843 2.374-5.33A.684.684 0 0 0 3.69.198a.645.645 0 0 0-.927-.004C1.058 1.925 0 4.335 0 6.48c0 2.542 1.471 4.386 4.156 5.238v2.343C4.156 16.233 5.88 18 8 18s3.845-1.767 3.845-3.94v-2.342C14.53 10.866 16 9.022 16 6.48c0-2.146-1.058-4.555-2.763-6.286" fill-rule="evenodd"/>
</symbol><symbol id="virtual-sim" viewBox="0 0 22 30">
    <path d="M16.068 18.7c.073-.072.356-.055.6.19a.747.747 0 0 1 .225.425c.009.08-.004.145-.035.176-.03.03-.097.042-.175.034a.745.745 0 0 1-.426-.224c-.244-.245-.26-.528-.189-.6zm-.894 1.685c.373.372.848.608 1.338.663.072.008.144.012.216.012.466 0 .9-.172 1.213-.486.363-.362.536-.884.474-1.43a2.268 2.268 0 0 0-.663-1.338c-.815-.815-2.057-.9-2.767-.189-.71.711-.626 1.952.19 2.768zM5.331 18.89a.745.745 0 0 1 .425-.224.371.371 0 0 1 .048-.003c.057 0 .103.013.127.038.073.072.056.355-.189.6a.747.747 0 0 1-.425.224c-.08.008-.145-.004-.175-.034-.073-.073-.056-.356.189-.601zm-.059 2.17c.072 0 .144-.004.216-.012a2.27 2.27 0 0 0 1.338-.663c.815-.816.9-2.057.189-2.768-.363-.362-.885-.535-1.43-.474-.49.056-.965.29-1.337.664-.816.815-.9 2.056-.19 2.767.314.314.748.486 1.214.486zm7.899-12.376c0-.423.343-.766.766-.766h3.199a.766.766 0 0 1 0 1.532h-3.199a.766.766 0 0 1-.766-.766zm0-2.303c0-.423.343-.766.766-.766h2.304a.766.766 0 1 1 0 1.532h-2.304a.766.766 0 0 1-.766-.766zm0-3.083c0-.423.343-.766.766-.766h3.199a.766.766 0 1 1 0 1.532h-3.199a.766.766 0 0 1-.766-.766zM8.359 8.634a2.263 2.263 0 0 1-2.26-2.26 2.263 2.263 0 0 1 2.26-2.262 2.264 2.264 0 0 1 2.261 2.261 2.264 2.264 0 0 1-2.26 2.261zm3.794-2.26A3.798 3.798 0 0 0 8.359 2.58a3.798 3.798 0 0 0-3.793 3.793 3.798 3.798 0 0 0 3.793 3.794 3.798 3.798 0 0 0 3.794-3.794zm8.016 20.964c-.26.267-.644.42-1.055.42h-.002l-8.113-.013-8.11.013h-.003a1.47 1.47 0 0 1-1.055-.42.991.991 0 0 1-.298-.723c.036-1.287.116-2.475.234-3.557.343.208.806.362 1.434.362H18.798c.63 0 1.092-.154 1.436-.362.117 1.082.197 2.27.233 3.557a.991.991 0 0 1-.298.723zM4.84 16.078H17.16c1.027 0 1.874 1.24 2.456 3.45.006.04.013.079.025.118a2.856 2.856 0 0 1 .054.193c.121.498.218 1.347-.078 1.753-.054.073-.217.296-.82.296H3.201c-.603 0-.765-.223-.818-.296-.298-.406-.2-1.257-.079-1.755l.001-.004c.017-.07.036-.133.053-.187a.77.77 0 0 0 .027-.126c.582-2.205 1.428-3.442 2.454-3.442zm5.178-1.532h1.966v-1.794h-1.966v1.794zM3.543 1.532h14.914v9.688H3.543V1.532zM17.16 14.546h-3.646v-1.794h5.708a.766.766 0 0 0 .767-.766V.766A.766.766 0 0 0 19.223 0H2.777a.766.766 0 0 0-.767.766v11.22c0 .423.343.766.767.766h5.708v1.794H4.839C2.788 14.546.283 16.632 0 26.572c-.02.678.24 1.33.732 1.834.546.562 1.331.884 2.153.884h.005l8.108-.013 8.11.013h.005c.822 0 1.606-.322 2.153-.883.49-.505.751-1.156.732-1.835-.282-9.94-2.787-12.026-4.838-12.026z" fill-rule="evenodd"/>
</symbol><symbol id="virtual-simulators-new" viewBox="0 0 24 24">
    <path d="M22.5 9.407c0-.448-.15-1.907-2.094-1.907h-8.557c-.836 0-1.416.458-2.088.989-.748.59-1.597 1.261-2.863 1.261H1.512a20.15 20.15 0 0 0 .293 3H6.9c1.207 0 2.07.663 2.83 1.247.7.539 1.304 1.003 2.12 1.003h7.274c2.271 0 3.375-1.227 3.375-3.75V9.407zM1.537 8.25h5.361c.744 0 1.269-.414 1.933-.939.779-.614 1.66-1.31 3.018-1.31h6.667c-1.043-3.062-4.024-4.5-9.297-4.5-4.14 0-7.32 2.852-7.682 6.75zM24 9.407v1.843c0 2.94-1.381 4.774-3.83 5.168-.258 1.59-.8 3.186-1.648 4.753-.678 1.253-1.712 1.333-2.738 1.333h-.224l-.135-.002v.748a.75.75 0 1 1-1.5 0v-.842c-2.127-.269-3.837-1.172-5.083-2.716a.75.75 0 0 1 1.166-.942c1.207 1.494 2.987 2.252 5.292 2.252l.268.001c1.128.018 1.36-.037 1.635-.546a13.68 13.68 0 0 0 1.43-3.957H11.85c-1.326 0-2.234-.698-3.034-1.313-.654-.503-1.219-.937-1.916-.937H2.153c.42 1.466.982 2.56 1.51 3.58.816 1.579 1.587 3.07 1.587 5.42a.75.75 0 1 1-1.5 0c0-1.985-.626-3.197-1.42-4.73C1.292 16.512 0 14.014 0 9c0-5.13 3.964-9 9.219-9 6.21 0 9.769 1.968 10.867 6h.32C22.889 6 24 7.71 24 9.407zm-9.82.285c-.49 1.048-.49 2.068 0 3.116a.75.75 0 0 1-1.36.634c-.678-1.454-.678-2.93 0-4.384a.751.751 0 0 1 1.36.634z" fill-rule="evenodd"/>
</symbol><symbol id="virtual-simulators" viewBox="0 0 22 24">
    <path d="M13.41 17.164a.849.849 0 0 0 0 1.206.849.849 0 0 0 1.212 0 .862.862 0 0 0-.005-1.21c-.316-.317-.885-.317-1.206.004zm3.197 0a.867.867 0 0 0-.253.603.866.866 0 0 0 .856.856.855.855 0 0 0 .856-.856.873.873 0 0 0-.249-.607c-.316-.312-.89-.317-1.21.004zm3.61-5.059a2.39 2.39 0 0 1-2.386 2.388H3.669a2.39 2.39 0 0 1-2.386-2.388V3.671A2.39 2.39 0 0 1 3.67 1.283h14.162a2.39 2.39 0 0 1 2.386 2.388v8.434zm0 5.58a2.39 2.39 0 0 1-2.386 2.387H3.669a2.39 2.39 0 0 1-2.386-2.387v-2.806a3.635 3.635 0 0 0 2.386.897h14.162a3.64 3.64 0 0 0 2.386-.89v2.799zm-3.028 4.217a.67.67 0 1 1-1.338 0v-.546h1.339v.546zm-11.54 0a.67.67 0 0 1-1.338 0v-.546h1.34v.546H5.65zM17.832 0H3.669A3.675 3.675 0 0 0 0 3.67v14.014a3.673 3.673 0 0 0 3.028 3.611v.606c0 1.077.876 1.953 1.953 1.953a1.955 1.955 0 0 0 1.953-1.953v-.546h7.633v.546c0 1.077.877 1.953 1.953 1.953a1.955 1.955 0 0 0 1.953-1.953v-.606a3.673 3.673 0 0 0 3.027-3.611V3.67A3.673 3.673 0 0 0 17.831 0zm-.808 7.729H15.03l-.816-1.905a.61.61 0 0 0-.6-.389.642.642 0 0 0-.587.408l-1.683 4.287L9.439 3.47a.642.642 0 0 0-1.214-.06L6.458 7.878H4.476a.642.642 0 1 0 0 1.283h2.418c.264 0 .5-.16.597-.405l1.232-3.118 1.906 6.669a.642.642 0 0 0 .586.464l.031.001c.264 0 .5-.16.597-.407l1.806-4.597.365.855a.641.641 0 0 0 .59.39h2.419a.642.642 0 0 0 0-1.284zm-9.537 9.396H4.289a.642.642 0 1 0 0 1.284h3.197a.642.642 0 1 0 0-1.284z" fill-rule="evenodd"/>
</symbol><symbol id="vr-simulators" viewBox="0 0 24 20">
    <path d="M18.135 12.604a.73.73 0 0 1-.73.73h-3.39a.73.73 0 0 1-.73-.73v-2.437a.73.73 0 0 1 .73-.73h3.39a.73.73 0 0 1 .73.73v2.437zm-.73-4.81h-3.39a2.376 2.376 0 0 0-2.374 2.373v2.437a2.376 2.376 0 0 0 2.374 2.373h3.39a2.376 2.376 0 0 0 2.373-2.373v-2.437a2.376 2.376 0 0 0-2.373-2.373zM6.299 14.727a.822.822 0 0 1-.822.822H3.559a.822.822 0 1 1 0-1.643h1.918c.454 0 .822.367.822.821zm0-3.342a.822.822 0 0 1-.822.822H3.559a.822.822 0 1 1 0-1.644h1.918c.454 0 .822.369.822.822zM2.737 7.111c0-.453.368-.822.822-.822h1.918a.822.822 0 0 1 0 1.644H3.559a.822.822 0 0 1-.822-.822zM9.34 17.605h12.904V4.59H9.34v13.014zm-7.696 0h6.052V4.59H1.644v13.014zm0-14.658h16.49V1.644H1.645v1.303zm18.134 0h2.466V1.644h-2.466v1.303zM23.066 0H.822A.822.822 0 0 0 0 .822v17.605c0 .454.368.822.822.822h22.244a.822.822 0 0 0 .822-.822V.822A.822.822 0 0 0 23.066 0z" fill-rule="evenodd"/>
</symbol></svg>