<svg width="0" height="0" class="hidden">
<symbol fill="none" xmlns="http://www.w3.org/2000/svg" viewBox="0 0 38 16" id="prev">
    <path d="M.293 7.293a1 1 0 000 1.414l6.364 6.364a1 1 0 001.414-1.414L2.414 8l5.657-5.657A1 1 0 006.657.93L.293 7.293zM38 7H1v2h37V7z" fill="#D09870"></path>
  </symbol>
  <symbol fill="none" xmlns="http://www.w3.org/2000/svg" viewBox="0 0 38 16" id="next">
    <path d="M37.707 8.707a1 1 0 000-1.414L31.343.929a1 1 0 10-1.414 1.414L35.586 8l-5.657 5.657a1 1 0 001.414 1.414l6.364-6.364zM0 9h37V7H0v2z" fill="#D09870"></path>
  </symbol>
  <symbol fill="none" xmlns="http://www.w3.org/2000/svg" viewBox="0 0 70 70" id="chat">
    <path d="M56.875 33.906h11.39L55.781 21.422v11.39a1.094 1.094 0 001.094 1.094z" fill="#F8F8F8"></path>
    <path d="M56.875 36.094a3.282 3.282 0 01-3.281-3.282v-12.03H30.625a3.282 3.282 0 00-3.281 3.28v41.563a3.282 3.282 0 003.281 3.281h35a3.282 3.282 0 003.281-3.281V36.094H56.875zm4.375 26.25H35a1.094 1.094 0 010-2.188h26.25a1.094 1.094 0 010 2.188zm0-6.563H35a1.094 1.094 0 110-2.187h26.25a1.094 1.094 0 110 2.187zm0-6.562H35a1.094 1.094 0 010-2.188h26.25a1.094 1.094 0 010 2.188zm0-6.563H35a1.094 1.094 0 110-2.187h26.25a1.094 1.094 0 110 2.187z" fill="#F8F8F8"></path>
    <path d="M14.672 19.688l3.28-3.282H35a7.656 7.656 0 100-15.312H8.75a7.656 7.656 0 000 15.312h2.188v1.735a2.187 2.187 0 003.734 1.547zm-5.922-5.47a5.469 5.469 0 010-10.937H35a5.469 5.469 0 010 10.938H17.5c-.29 0-.568.115-.773.32l-3.602 3.602v-2.828a1.093 1.093 0 00-1.094-1.094H8.75z" fill="#D09870"></path>
    <path d="M36.094 8.75A1.094 1.094 0 0035 7.656H8.75a1.094 1.094 0 100 2.188H35a1.094 1.094 0 001.094-1.094zM8.75 55.781h2.188v1.735a2.187 2.187 0 003.734 1.547l3.28-3.282H35a7.656 7.656 0 100-15.312H8.75a7.656 7.656 0 100 15.312zm0-13.125H35a5.469 5.469 0 010 10.938H17.5c-.29 0-.568.115-.773.32l-3.602 3.602v-2.828a1.093 1.093 0 00-1.094-1.094H8.75a5.469 5.469 0 010-10.938z" fill="#D09870"></path>
    <path d="M8.75 49.219H35a1.094 1.094 0 000-2.188H8.75a1.094 1.094 0 000 2.188zm39.375-28.438h-26.25a7.657 7.657 0 000 15.313h17.047l3.281 3.281a2.188 2.188 0 003.734-1.547v-1.734h2.188a7.656 7.656 0 000-15.313zm0 13.125h-3.281A1.094 1.094 0 0043.75 35v2.828l-3.602-3.601a1.094 1.094 0 00-.773-.32h-17.5a5.469 5.469 0 110-10.938h26.25a5.469 5.469 0 110 10.937z" fill="#D09870"></path>
    <path d="M48.125 27.344h-26.25a1.094 1.094 0 100 2.187h26.25a1.094 1.094 0 100-2.187z" fill="#D09870"></path>
  </symbol>
  <symbol fill="none" xmlns="http://www.w3.org/2000/svg" viewBox="0 0 70 70" id="clothes-donation">
    <path d="M39.408 28.547v-1.094h10.937v1.094a5.47 5.47 0 01-10.937 0zm29.531 2.187v8.75a3.281 3.281 0 01-3.281 3.282h-6.563v22.968a3.282 3.282 0 01-3.281 3.282H33.939a3.281 3.281 0 01-3.281-3.282V42.766h-6.563a3.282 3.282 0 01-3.281-3.282v-8.75a3.281 3.281 0 013.281-3.28H37.22v1.093a7.657 7.657 0 0015.313 0v-1.094h13.125a3.28 3.28 0 013.281 3.281zM52.533 45.317a4.518 4.518 0 00-4.375-4.739 5.134 5.134 0 00-3.282 1.174 5.134 5.134 0 00-3.28-1.174 4.521 4.521 0 00-4.376 4.74c0 1.769.932 5.197 7.173 8.273a1.094 1.094 0 00.967 0c6.24-3.08 7.173-6.508 7.173-8.278v.004z" fill="#F8F8F8"></path>
    <path d="M4.375 55.781H43.75a3.282 3.282 0 003.281-3.281V4.375a3.281 3.281 0 00-3.281-3.281H4.375a3.281 3.281 0 00-3.281 3.281V52.5a3.281 3.281 0 003.281 3.281zm39.375-52.5a1.094 1.094 0 011.094 1.094v35a1.094 1.094 0 01-1.094 1.094H25.156V14.074l6.782 4.52a2.189 2.189 0 003.357-1.392l2.79-13.92h5.665zm-7.897 0l-2.7 13.497-7.573-5.05 5.63-8.447h4.643zm-7.271 0l-4.52 6.781-4.519-6.78h9.039zm-11.667 0l5.63 8.447-7.574 5.049-2.7-13.496h4.644zM3.28 4.375a1.094 1.094 0 011.094-1.094h5.666l2.785 13.926a2.188 2.188 0 003.361 1.387l6.782-4.519V40.47H4.375a1.094 1.094 0 01-1.094-1.094v-35zm0 38.08c.35.13.72.198 1.094.201H43.75a3.245 3.245 0 001.094-.201v1.295a1.094 1.094 0 01-1.094 1.094H4.375a1.094 1.094 0 01-1.094-1.094v-1.295zm0 4.375c.35.13.72.198 1.094.201H43.75a3.245 3.245 0 001.094-.201v1.295a1.094 1.094 0 01-1.094 1.094H4.375a1.094 1.094 0 01-1.094-1.094V46.83zm0 4.375c.35.13.72.198 1.094.201H43.75a3.245 3.245 0 001.094-.201V52.5a1.094 1.094 0 01-1.094 1.094H4.375A1.094 1.094 0 013.281 52.5v-1.295z" fill="#D09870"></path>
  </symbol>
  <symbol fill="none" xmlns="http://www.w3.org/2000/svg" viewBox="0 0 70 70" id="presentation">
    <path d="M48.633 47.031L62.962 61.36a22.845 22.845 0 005.944-14.328H48.633z" fill="#F8F8F8"></path>
    <path d="M45.22 46.712a1.108 1.108 0 01-.32-.775V23.024a22.953 22.953 0 1016.515 39.884L45.22 46.712z" fill="#F8F8F8"></path>
    <path d="M47.087 44.844h21.82a22.96 22.96 0 00-21.82-21.82v21.82z" fill="#F8F8F8"></path>
    <path d="M53.594 5.469H29.53V2.187a1.094 1.094 0 10-2.187 0V5.47H3.28a2.188 2.188 0 00-2.187 2.187v3.282a2.187 2.187 0 002.187 2.187V40.47a3.281 3.281 0 003.281 3.281h20.782v1.63l-11.58 8.423a1.093 1.093 0 101.285 1.77l10.295-7.487v6.602a1.094 1.094 0 102.187 0v-6.602l10.295 7.486a1.094 1.094 0 101.286-1.77l-11.58-8.421V43.75h20.78a3.281 3.281 0 003.282-3.281V13.125a2.187 2.187 0 002.187-2.188v-3.28a2.187 2.187 0 00-2.187-2.188zm-2.188 35a1.094 1.094 0 01-1.093 1.093H6.563a1.093 1.093 0 01-1.094-1.093V13.125h45.937v27.344zm2.188-29.532H3.28v-3.28h50.313v3.28z" fill="#D09870"></path>
    <path d="M11.594 33.688l3.616-2.713 6.985 6.986a1.094 1.094 0 001.515.03l12.384-11.43v2.97a1.094 1.094 0 102.187 0v-5.468c0-.483-.312-.95-1.093-1.094h-5.47a1.094 1.094 0 100 2.187h2.673L22.999 35.67l-6.913-6.912a1.093 1.093 0 00-1.43-.102l-4.375 3.282a1.092 1.092 0 00-.219 1.53 1.094 1.094 0 001.532.22zm2.625-10.921v2.39a1.094 1.094 0 002.187 0v-2.39a3.281 3.281 0 10-2.187 0zm1.094-4.173a1.094 1.094 0 110 2.187 1.094 1.094 0 010-2.187z" fill="#D09870"></path>
    <path d="M21.875 28.236v2.389a1.093 1.093 0 102.188 0v-2.389a3.281 3.281 0 10-2.188 0zm1.094-4.174a1.094 1.094 0 110 2.19 1.094 1.094 0 010-2.19zm18.594-5.468h4.374a1.094 1.094 0 000-2.188h-4.374a1.094 1.094 0 000 2.188zm0 6.562h4.374a1.094 1.094 0 100-2.187h-4.374a1.094 1.094 0 100 2.187zm0 6.563h4.374a1.094 1.094 0 000-2.188h-4.374a1.094 1.094 0 000 2.188zm0 6.562h4.374a1.094 1.094 0 100-2.187h-4.374a1.094 1.094 0 100 2.187z" fill="#D09870"></path>
  </symbol>
    <symbol fill="none" xmlns="http://www.w3.org/2000/svg" viewBox="0 0 80 80" id="brainstorming">
    <path d="M21.25 47.5H17.5a1.25 1.25 0 010-2.5h3.75a1.25 1.25 0 010 2.5zm-1.6 12.938a1.25 1.25 0 01.55-1.687l3.338-1.7a1.249 1.249 0 111.137 2.225l-3.338 1.712a1.251 1.251 0 01-1.687-.55zM77.5 47.5h-3.75a1.25 1.25 0 010-2.5h3.75a1.25 1.25 0 010 2.5zm-7.725-12.6a1.25 1.25 0 01.55-1.675l3.337-1.712A1.256 1.256 0 0174.8 33.75l-3.338 1.7a1.248 1.248 0 01-1.687-.55zm3.887 26.088l-3.337-1.712a1.25 1.25 0 111.137-2.225l3.338 1.7a1.255 1.255 0 01-1.138 2.237zM36.938 68.75h9.312V56.925l-3.187-2.137a1.249 1.249 0 111.375-2.075L47.5 54.75l3.063-2.037a1.25 1.25 0 011.375 2.075l-3.188 2.137V68.75h9.225a26.936 26.936 0 015.2-8.175 21.25 21.25 0 10-31.5-.162 28.75 28.75 0 015.263 8.337zM53.75 40a5 5 0 110 10 5 5 0 010-10zm-12.5 0a5 5 0 110 10 5 5 0 010-10zm-3.437 31.25c.352 1.198.607 2.423.762 3.662l.175 1.488A1.25 1.25 0 0040 77.5h15a1.25 1.25 0 001.25-1.1l.237-1.913c.144-1.092.36-2.174.65-3.237H37.813z" fill="#F8F8F8"></path>
    <path d="M51.862 19.363a9.375 9.375 0 10-11.25 0c-.612.17-1.213.38-1.8.625a9.312 9.312 0 00-12.7 0 15.322 15.322 0 00-1.8-.625 9.375 9.375 0 10-11.25 0A16.25 16.25 0 001.25 35v1.25A1.25 1.25 0 002.5 37.5h18.375A16.25 16.25 0 0015 50v1.25a1.25 1.25 0 001.25 1.25h32.5A1.25 1.25 0 0050 51.25V50a16.25 16.25 0 00-5.888-12.5H62.5a1.25 1.25 0 001.25-1.25V35a16.25 16.25 0 00-11.888-15.637zm-12.5-7.5a6.875 6.875 0 116.888 6.887 6.888 6.888 0 01-6.875-6.875l-.013-.012zM32.5 20a6.875 6.875 0 11-6.875 6.875A6.887 6.887 0 0132.5 20zm-20.625-8.125a6.875 6.875 0 116.875 6.875 6.888 6.888 0 01-6.875-6.875zM3.75 35A13.75 13.75 0 0117.5 21.25H20a13.75 13.75 0 014.5.763 9.313 9.313 0 002.387 12.35A14.99 14.99 0 0025 35H3.75zM47.5 50h-30a13.75 13.75 0 0113.75-13.75h2.5A13.75 13.75 0 0147.5 50zM40 35a15 15 0 00-1.875-.637 9.312 9.312 0 002.388-12.35A13.75 13.75 0 0145 21.25h2.5A13.748 13.748 0 0161.25 35H40z" fill="#D09870"></path>
  </symbol>
    <symbol fill="none" xmlns="http://www.w3.org/2000/svg" viewBox="0 0 60 60" id="minibus-trip">
    <path d="M59.992 25.54a1.064 1.064 0 00-.14-.668l-4.108-6.96c-1.41-2.35-2.739-3.723-5.4-3.955a1.076 1.076 0 00-.273-.035H3.214A3.218 3.218 0 000 17.136V35.09c0 2.903 2.433 4.294 4.293 4.791a6.439 6.439 0 006.426 6.196c3.18 0 5.828-2.322 6.34-5.36h25.94c.512 3.038 3.16 5.36 6.341 5.36 3.18 0 5.828-2.322 6.34-5.36h3.249c.591 0 1.071-.48 1.071-1.071v-13.98c0-.042-.003-.084-.008-.126zm-4.221 3.438c0-.591.48-1.072 1.071-1.072h1.015v2.11h-2.086v-1.038zm1.459-4.331h-9.127l-2.665-5.334h8.644l3.148 5.334zM2.143 26.79h1.15v3.226h-1.15V26.79zm0-2.143v-5.353h35.273c1.183 0 1.891.418 2.367 1.392l1.91 3.96H2.143zm8.576 19.288a4.294 4.294 0 01-4.289-4.29 4.294 4.294 0 014.29-4.288 4.293 4.293 0 014.287 4.288 4.293 4.293 0 01-4.288 4.29zm38.621 0a4.294 4.294 0 01-4.289-4.29 4.294 4.294 0 014.29-4.288 4.293 4.293 0 014.287 4.288 4.293 4.293 0 01-4.288 4.29zm6.34-5.36c-.511-3.039-3.159-5.361-6.34-5.361s-5.83 2.322-6.34 5.36H17.058c-.512-3.038-3.159-5.36-6.34-5.36a6.443 6.443 0 00-6.14 4.516c-1.002-.311-2.436-1.037-2.436-2.64v-2.932h1.15a2.145 2.145 0 002.142-2.142V26.79h37.94c.592 0 1.071-.48 1.071-1.072v-.051c0-.161-.036-.32-.106-.466l-2.63-5.45c-.841-1.725-2.286-2.6-4.294-2.6H2.143v-.015c0-.59.48-1.071 1.071-1.071h46.282c1.43 0 2.299.315 3.078 1.105h-8.869a1.072 1.072 0 00-.958 1.55l3.63 7.268c.12.461.54.802 1.038.802h7.076a3.202 3.202 0 00-.863 2.188v2.11c0 .59.48 1.07 1.071 1.07h3.158v6.416H55.68z" fill="#D09870"></path>
    <path d="M49.34 30.016H9.776a1.072 1.072 0 000 2.142H49.34a1.072 1.072 0 000-2.142zm-36.52 8.558c-.592 0-1.072.48-1.072 1.072a1.03 1.03 0 01-2.06 0c0-.568.463-1.03 1.03-1.03a1.071 1.071 0 000-2.143 3.176 3.176 0 00-3.172 3.173 3.176 3.176 0 003.173 3.172 3.176 3.176 0 003.172-3.172c0-.592-.48-1.072-1.071-1.072zm38.62 0c-.59 0-1.07.48-1.07 1.072a1.03 1.03 0 01-2.06 0c0-.568.462-1.03 1.03-1.03a1.071 1.071 0 000-2.143 3.176 3.176 0 00-3.173 3.173 3.176 3.176 0 003.173 3.172 3.176 3.176 0 003.172-3.172c0-.592-.48-1.072-1.071-1.072z" fill="#D09870"></path>
  </symbol>
    <symbol fill="none" xmlns="http://www.w3.org/2000/svg" viewBox="0 0 68 68" id="car">
    <g clip-path="url(#clip0)" fill="#D09870">
      <path d="M39.783 30.622h-4.534v2.267h4.534v-2.267z"></path>
      <path d="M1.086 27.234l7.7-1.1a38.834 38.834 0 014.362-2.312 38.168 38.168 0 0115.79-3.4h1.338a38.526 38.526 0 0118.396 4.691l3.886 2.12a26.781 26.781 0 0112.96 3.513 5.175 5.175 0 012.6 4.48v6.73c0 .627-.507 1.134-1.133 1.134h-3.806a6.776 6.776 0 01-12.788 0H20.109a6.776 6.776 0 01-12.788 0h-.407c-.144 0-.287-.027-.421-.08l-3.671-1.474a4.286 4.286 0 01-2.709-4v-9.18c0-.564.415-1.042.973-1.122zM52.342 41.73a4.534 4.534 0 108.884-1.815 4.534 4.534 0 00-8.884 1.815zm-20.493-.907h18.135a6.8 6.8 0 1113.6 0h2.267v-5.597a2.9 2.9 0 00-1.458-2.512 24.505 24.505 0 00-12.142-3.225H31.849v11.334zm0-13.6h15.956l-.218-.12a36.241 36.241 0 00-15.738-4.365v4.485zm-2.267-4.534h-.641a35.874 35.874 0 00-13.336 2.555l1.979 1.979h11.998v-4.534zM9.272 41.73a4.534 4.534 0 108.885-1.816 4.534 4.534 0 00-8.884 1.816zM2.38 30.622h3.4v2.268h-3.4v4.646a2.029 2.029 0 001.283 1.894l3.251 1.306c0-.104.014-.208.02-.312.007-.104.01-.226.02-.34.012-.113.035-.227.053-.34.018-.113.032-.227.054-.33.023-.103.056-.217.086-.325.03-.108.052-.216.086-.322.033-.105.075-.206.113-.31.039-.102.074-.209.113-.311.04-.102.093-.195.14-.291.048-.097.095-.202.148-.3.054-.097.113-.18.165-.27.05-.091.113-.194.177-.287.065-.093.125-.167.187-.25.063-.084.133-.183.206-.27a3.39 3.39 0 01.21-.227c.07-.071.149-.168.227-.247.078-.08.155-.142.233-.212.079-.07.163-.153.249-.227.086-.073.173-.13.259-.195.086-.064.173-.133.263-.194.09-.06.193-.113.29-.177.098-.063.177-.113.269-.161.092-.05.206-.1.31-.15.104-.05.186-.094.283-.135.096-.04.226-.084.34-.124.113-.041.187-.073.283-.104.13-.04.261-.068.393-.1.087-.021.17-.048.256-.066.14-.029.283-.044.424-.065.084-.011.164-.03.248-.038a6.807 6.807 0 017.492 6.766h9.07V29.489H17.116c-.301 0-.59-.12-.801-.332l-2.94-2.94a36.358 36.358 0 00-3.593 1.966 1.136 1.136 0 01-.44.161l-6.96.994v1.284z"></path>
    </g>
    <defs>
      <clipPath id="clip0">
        <path fill="#fff" transform="matrix(-1 0 0 1 68 0)" d="M0 0h68v68H0z"></path>
      </clipPath>
    </defs>
  </symbol>
</svg>