<svg width="220" height="19" viewBox="0 0 220 19" xmlns="http://www.w3.org/2000/svg">
    <title>
        virtumed-logo_white
    </title>
    <g fill="none" fill-rule="evenodd">
        <path d="M46.823 3.011h15.109c1.121 0 2.038.87 2.038 1.934v.99c0 1.064-.917 1.934-2.038 1.934h-7.16c-3.008.291-3.27 2.948-3.27 4.489v.17h-.006V17.1c0 .619-.51 1.124-1.133 1.124H43.77A1.131 1.131 0 0 1 42.64 17.1V7.996c0-1.8.321-4.985 4.184-4.985zm26.938 15.212H84.24c2.019 0 2.319-3.48 0-3.628l-2.266-.145h-.657c-3.485 0-3.222-2.752-3.222-4.309V7.87h9.668c1.12 0 2.038-.87 2.038-1.934v-.99c0-1.064-.917-1.934-2.038-1.934H67.498c-1.121 0-2.038.87-2.038 1.934v.99c0 1.064.917 1.934 2.038 1.934h2.307v5.492c0 1.756.304 4.862 3.956 4.862zm24.321 0h1.435c.254.01.538.001.837 0h10.588c.3.001.583.01.837 0h1.435c4.464 0 6.487-1.537 6.487-6.42V4.135c0-.619-.51-1.125-1.132-1.125h-6.593c-.623 0-1.132.506-1.132 1.125v5.566h-.006v.17c0 1.54-.263 4.198-3.27 4.489h-3.839c-3.007-.291-3.27-2.949-3.27-4.489v-.17h-.006V4.136c0-.619-.51-1.125-1.132-1.125h-6.593c-.623 0-1.132.506-1.132 1.125V11.802c0 4.884 2.023 6.421 6.486 6.421zm31.13-15.207h.398c.254-.01.538-.001.837 0h9.434c.3-.001.582-.01.837 0 1.195 0 3.244 1.118 3.924 1.861.513-.625 2.402-1.866 4.026-1.861H158.923c.299-.001.582-.01.836 0h.314c4.464 0 7.105 1.537 7.105 6.421v7.667a1.13 1.13 0 0 1-1.132 1.124h-6.593a1.131 1.131 0 0 1-1.132-1.124v-4.481h-.006v-.17c0-1.54-.263-4.198-3.27-4.488h-2.717c-2.537.245-3.12 2.175-3.241 3.697v5.442c0 .619-.51 1.124-1.133 1.124h-6.626a1.13 1.13 0 0 1-1.133-1.124v-5.436c-.12-1.523-.701-3.458-3.242-3.703h-2.802c-3.007.29-3.27 2.948-3.27 4.488v.17h-.006v4.481c0 .619-.51 1.124-1.132 1.124h-6.593a1.13 1.13 0 0 1-1.132-1.124V9.437c0-4.884 2.73-6.421 7.193-6.421zm47.069-.005H188.766c3.01 0 2.607 3.11.168 3.11h-6.786c-1.442-.036-2.41.747-3.037 1.735-.606.954-.56 1.653-.597 2.747v.003c.037 1.094-.01 1.794.597 2.748.627.988 1.595 1.77 3.037 1.735h6.786c2.439 0 2.842 3.11-.168 3.11H176.281c-3.54 0-6.352-3.593-6.481-6.858h-.006V9.868h.006c.129-3.264 2.94-6.857 6.48-6.857zm5.868 5.881h4.702c.925 0 1.683.77 1.683 1.713 0 .942-.758 1.712-1.683 1.712h-4.702c-.926 0-1.683-.77-1.683-1.712s.757-1.713 1.683-1.713zm28.78 6.195V6.12h-6.38c-1.442-.036-2.41.747-3.038 1.735a3.408 3.408 0 0 0-.552 1.66l-.001.016-.002.014v.017l-.002.022-.002.023v.002l-.001.015v.005l-.001.011v.006l-.004.057v.012l-.001.004c-.005.09-.009.182-.012.275V10.025l-.001.006v.034l-.001.005v.029l-.001.017-.002.045v.024l-.004.123v.018l-.004.121v.024l-.004.08v.013l-.001.036v.008l.004.129v.023l.004.121v.022l.004.12v.017l.001.005v.002l.002.061v.029l.001.005v.035l.001.006.001.025v.004c.003.094.007.185.012.275v.004l.001.012.003.058.001.006.001.01v.005l.001.015v.002l.002.023.001.023.001.015v.001l.002.014v.017c.05.56.172 1.06.553 1.66.628.988 1.596 1.77 3.038 1.735h6.38zm8.972.274v1.208c0 .885-.612 1.608-1.361 1.608h-6.25c-.604 0-1.118-.47-1.296-1.115-.902.542-2.476 1.167-4.766 1.135h-5.245c-4.352 0-8.515-1.617-8.777-6.747v-.01l-.002-.028v-.022l-.001-.01v-.008l-.002-.026v-.005h-.006V9.867h.006V9.86l.001-.025v-.008l.001-.01V9.8l.001-.005.001-.027v-.006l.001-.006c.262-5.13 4.425-6.746 8.777-6.746h5.245c2.235-.032 3.788.564 4.7 1.095V1.608c0-.884.613-1.608 1.361-1.608h6.251c.75 0 1.36.724 1.36 1.608v13.753zM14.71 9.782l-.013.012-.013-.012v.011C12.44 7.803 9.081 3.151 6 3.054a75.534 75.534 0 0 0-4.033-.036c-.403.009-.83-.017-1.184.21-.455.292-.79.747-.783 1.31.007.53.323.767.65 1.133C2 7.179 4.243 9.479 7.413 12.543c1.073 1.038 2.2 2.21 3.245 3.224 1.617 1.568 2.742 2.53 4.04 2.448 1.296.082 2.421-.88 4.037-2.448 1.046-1.013 2.173-2.186 3.246-3.224 3.17-3.064 5.413-5.364 6.762-6.872.328-.366.643-.604.65-1.134.009-.562-.314-1.04-.782-1.309-.436-.251-.815-.23-1.331-.228-1.204.004-2.547-.044-3.75-.006-.569.017-1.286.253-1.867.537-2.555 1.252-5.124 4.64-6.953 6.262v-.01z" fill="#FFF"/>
        <path d="M40.222 10.122v1.208c0 .884-.589 1.608-1.308 1.608h-6.003c-.72 0-1.308-.724-1.308-1.608V1.619c0-.885.589-1.608 1.308-1.608h6.003c.72 0 1.308.723 1.308 1.608v8.503zm-7.318 4.08h6.017c1.185 0 2.154.892 2.154 1.982 0 1.09-.97 1.982-2.154 1.982h-6.017c-1.185 0-2.154-.892-2.154-1.982 0-1.09.969-1.982 2.154-1.982z" fill="#F5A623"/>
    </g>
</svg>
