<svg width="180" height="16" viewBox="0 0 180 16" xmlns="http://www.w3.org/2000/svg">
    <title>
        virtumed-logo_red
    </title>
    <defs>
        <linearGradient x1="50%" y1="0%" x2="50%" y2="100%" id="a">
            <stop stop-color="#C65846" offset="0%"/>
            <stop stop-color="#952C21" offset="100%"/>
        </linearGradient>
    </defs>
    <g fill="none" fill-rule="evenodd">
        <path d="M38.31 2.48h12.362c.917 0 1.667.718 1.667 1.594v.816c0 .876-.75 1.592-1.667 1.592h-5.859c-2.46.24-2.676 2.43-2.676 3.698v.14h-.004V14.087c0 .51-.417.926-.927.926h-5.394a.929.929 0 0 1-.926-.926V6.587c0-1.483.263-4.106 3.424-4.106zm22.04 12.532h8.574c1.651 0 1.897-2.867 0-2.989l-1.854-.12h-.538c-2.852 0-2.636-2.267-2.636-3.549V6.482h7.91c.917 0 1.668-.716 1.668-1.592v-.816c0-.876-.75-1.593-1.668-1.593H55.225c-.917 0-1.667.717-1.667 1.593v.816c0 .876.75 1.592 1.667 1.592h1.888v4.524c0 1.447.25 4.006 3.237 4.006zm19.899 0h1.174c.208.009.44.001.685 0H90.771c.245.001.477.009.684 0h1.175c3.652 0 5.307-1.266 5.307-5.29V3.408a.929.929 0 0 0-.926-.926h-5.394a.929.929 0 0 0-.926.926v4.585h-.005v.14c0 1.27-.216 3.459-2.676 3.698h-3.14c-2.461-.24-2.676-2.429-2.676-3.697v-.14h-.005V3.406a.929.929 0 0 0-.926-.926h-5.394a.929.929 0 0 0-.927.926v6.316c0 4.023 1.655 5.29 5.307 5.29zm25.47-12.528h.325c.208-.007.44 0 .685 0h7.719c.245 0 .477-.007.685 0 .978 0 2.654.921 3.21 1.534.42-.515 1.965-1.537 3.295-1.534h8.39c.244 0 .476-.007.684 0h.257c3.652 0 5.813 1.267 5.813 5.29v6.316c0 .51-.417.926-.926.926h-5.394a.929.929 0 0 1-.927-.926V10.4h-.004v-.14c0-1.27-.216-3.458-2.676-3.698h-2.223c-2.076.203-2.553 1.792-2.652 3.047v4.482c0 .51-.417.926-.926.926h-5.422a.928.928 0 0 1-.927-.926V9.612c-.098-1.255-.574-2.848-2.652-3.05h-2.293c-2.46.239-2.676 2.428-2.676 3.697v.14h-.004V14.09c0 .51-.417.926-.927.926h-5.394a.928.928 0 0 1-.926-.926V7.775c0-4.024 2.233-5.29 5.885-5.29zm38.51-.003H154.446c2.462 0 2.133 2.562.137 2.562h-5.552c-1.18-.03-1.971.615-2.485 1.428-.496.786-.458 1.363-.488 2.263v.003c.03.901-.008 1.478.488 2.264.514.814 1.305 1.459 2.485 1.43h5.552c1.996 0 2.325 2.56-.137 2.56H144.23c-2.897 0-5.197-2.959-5.303-5.648h-.005V8.13h.005c.106-2.69 2.406-5.65 5.303-5.65zm4.802 4.844h3.847c.757 0 1.377.635 1.377 1.411 0 .777-.62 1.411-1.377 1.411h-3.847c-.758 0-1.377-.634-1.377-1.411 0-.776.62-1.41 1.377-1.41zm23.547 5.103V5.043h-5.22c-1.18-.03-1.972.615-2.485 1.428a2.821 2.821 0 0 0-.452 1.369v.012l-.002.012V7.878l-.002.018-.001.019v.002l-.002.012V7.947l-.004.047V8.007c-.005.074-.008.15-.01.227v.004l-.001.02v.033l-.001.005v.023l-.001.014-.001.037v.006l-.001.014-.003.102v.014l-.003.1v.02l-.003.066v.01l-.001.03v.007l.003.106v.019l.004.1v.018l.003.098V9.1l.002.051v.024l.001.004v.028l.001.005v.024l.01.227.001.004v.01l.003.047v.005l.001.008v.004l.001.013v.001l.002.02.001.018v.014l.002.011.001.014c.04.461.14.873.452 1.367.513.814 1.305 1.46 2.485 1.43h5.22zm7.34.226v.996c0 .728-.5 1.325-1.113 1.325h-5.114c-.493 0-.914-.388-1.06-.92-.738.447-2.025.962-3.899.935h-4.291c-3.561 0-6.967-1.332-7.181-5.558v-.004l-.001-.004-.001-.023V9.383l-.001-.008v-.007l-.001-.021v-.004h-.005V8.128h.004v-.004l.001-.02v-.007l.001-.01v-.013l.001-.004v-.023l.001-.005v-.004c.215-4.226 3.621-5.557 7.182-5.557h4.291c1.829-.027 3.1.464 3.846.902V1.325c0-.729.5-1.325 1.113-1.325h5.114c.613 0 1.114.596 1.114 1.325v11.33zM12.036 8.06l-.01.01-.01-.01v.009c-1.838-1.64-4.585-5.472-7.106-5.552a61.38 61.38 0 0 0-3.3-.03c-.33.007-.679-.014-.968.174-.372.24-.647.615-.64 1.078.005.437.263.632.531.934 1.105 1.242 2.94 3.137 5.533 5.66.878.856 1.8 1.822 2.656 2.657 1.322 1.292 2.243 2.084 3.304 2.016 1.061.068 1.982-.724 3.304-2.016.855-.835 1.777-1.801 2.655-2.656 2.594-2.524 4.43-4.42 5.533-5.661.268-.302.526-.497.532-.934.007-.463-.257-.856-.64-1.078-.357-.208-.667-.19-1.09-.189-.984.004-2.083-.036-3.066-.005-.467.015-1.054.209-1.529.443-2.09 1.031-4.192 3.823-5.689 5.159v-.01z" fill="url(#a)"/>
        <path d="M32.909 8.338v.995c0 .729-.482 1.325-1.07 1.325h-4.912c-.588 0-1.07-.596-1.07-1.325V1.334c0-.729.482-1.325 1.07-1.325h4.912c.588 0 1.07.596 1.07 1.325v7.005zM26.922 11.7h4.922c.97 0 1.763.735 1.763 1.633s-.793 1.633-1.763 1.633h-4.922c-.97 0-1.763-.735-1.763-1.633s.793-1.633 1.763-1.633z" fill="#F5A623"/>
    </g>
</svg>
